Open Antique Tuscan-Condensed.ufo
<glyph name="numbersign" format="1">
  <advance width="700"/>
  <unicode hex="0023"/>
  <note>
    To unskew: -8 skew
  </note>
  <outline>
    <contour>
      <point x="571" y="253"/>
      <point x="571" y="256"/>
      <point x="571" y="259" type="curve" smooth="yes"/>
      <point x="571" y="269"/>
      <point x="569" y="278"/>
      <point x="569" y="294" type="curve" smooth="yes"/>
      <point x="569" y="302"/>
      <point x="569" y="312"/>
      <point x="571" y="325" type="curve"/>
      <point x="577" y="370"/>
      <point x="589" y="380"/>
      <point x="591" y="400" type="curve"/>
      <point x="581" y="400"/>
      <point x="570" y="390"/>
      <point x="540" y="390" type="curve"/>
      <point x="496" y="390"/>
      <point x="484" y="402"/>
      <point x="484" y="418" type="curve" smooth="yes"/>
      <point x="484" y="420"/>
      <point x="485" y="423"/>
      <point x="485" y="425" type="curve"/>
      <point x="488" y="445"/>
      <point x="500" y="460"/>
      <point x="550" y="460" type="curve"/>
      <point x="580" y="460"/>
      <point x="589" y="450"/>
      <point x="599" y="450" type="curve"/>
      <point x="599" y="452"/>
      <point x="599" y="455"/>
      <point x="599" y="457" type="curve" smooth="yes"/>
      <point x="599" y="468"/>
      <point x="597" y="477"/>
      <point x="597" y="494" type="curve" smooth="yes"/>
      <point x="597" y="502"/>
      <point x="597" y="512"/>
      <point x="599" y="525" type="curve"/>
      <point x="605" y="570"/>
      <point x="617" y="580"/>
      <point x="620" y="600" type="curve"/>
      <point x="610" y="600"/>
      <point x="598" y="590"/>
      <point x="568" y="590" type="curve" smooth="yes"/>
      <point x="530" y="590"/>
      <point x="516" y="596"/>
      <point x="516" y="632" type="curve" smooth="yes"/>
      <point x="516" y="643"/>
      <point x="518" y="658"/>
      <point x="520" y="676" type="curve"/>
      <point x="526" y="720"/>
      <point x="538" y="730"/>
      <point x="541" y="750" type="curve"/>
      <point x="521" y="750"/>
      <point x="509" y="740"/>
      <point x="464" y="740" type="curve"/>
      <point x="419" y="740"/>
      <point x="411" y="750"/>
      <point x="391" y="750" type="curve"/>
      <point x="390" y="747"/>
      <point x="390" y="744"/>
      <point x="390" y="741" type="curve" smooth="yes"/>
      <point x="390" y="731"/>
      <point x="392" y="722"/>
      <point x="392" y="706" type="curve" smooth="yes"/>
      <point x="392" y="698"/>
      <point x="392" y="688"/>
      <point x="390" y="675" type="curve"/>
      <point x="380" y="600"/>
      <point x="359" y="590"/>
      <point x="343" y="590" type="curve"/>
      <point x="331" y="590"/>
      <point x="317" y="596"/>
      <point x="317" y="637" type="curve" smooth="yes"/>
      <point x="317" y="647"/>
      <point x="318" y="660"/>
      <point x="320" y="675" type="curve"/>
      <point x="326" y="720"/>
      <point x="338" y="730"/>
      <point x="341" y="750" type="curve"/>
      <point x="321" y="750"/>
      <point x="309" y="740"/>
      <point x="264" y="740" type="curve"/>
      <point x="219" y="740"/>
      <point x="211" y="750"/>
      <point x="191" y="750" type="curve"/>
      <point x="190" y="747"/>
      <point x="190" y="744"/>
      <point x="190" y="741" type="curve" smooth="yes"/>
      <point x="190" y="731"/>
      <point x="192" y="722"/>
      <point x="192" y="706" type="curve" smooth="yes"/>
      <point x="192" y="698"/>
      <point x="192" y="688"/>
      <point x="190" y="675" type="curve" smooth="yes"/>
      <point x="180" y="600"/>
      <point x="168" y="590"/>
      <point x="118" y="590" type="curve" smooth="yes"/>
      <point x="88" y="590"/>
      <point x="80" y="600"/>
      <point x="70" y="600" type="curve"/>
      <point x="69" y="597"/>
      <point x="69" y="594"/>
      <point x="69" y="591" type="curve" smooth="yes"/>
      <point x="69" y="581"/>
      <point x="71" y="572"/>
      <point x="71" y="556" type="curve" smooth="yes"/>
      <point x="71" y="548"/>
      <point x="71" y="538"/>
      <point x="69" y="525" type="curve"/>
      <point x="63" y="480"/>
      <point x="51" y="470"/>
      <point x="49" y="450" type="curve"/>
      <point x="59" y="450"/>
      <point x="70" y="460"/>
      <point x="100" y="460" type="curve"/>
      <point x="144" y="460"/>
      <point x="156" y="448"/>
      <point x="156" y="432" type="curve" smooth="yes"/>
      <point x="156" y="430"/>
      <point x="155" y="427"/>
      <point x="155" y="425" type="curve"/>
      <point x="152" y="405"/>
      <point x="140" y="390"/>
      <point x="90" y="390" type="curve"/>
      <point x="60" y="390"/>
      <point x="51" y="400"/>
      <point x="41" y="400" type="curve"/>
      <point x="41" y="398"/>
      <point x="41" y="395"/>
      <point x="41" y="393" type="curve" smooth="yes"/>
      <point x="41" y="382"/>
      <point x="43" y="373"/>
      <point x="43" y="356" type="curve" smooth="yes"/>
      <point x="43" y="348"/>
      <point x="43" y="338"/>
      <point x="41" y="325" type="curve"/>
      <point x="35" y="280"/>
      <point x="23" y="270"/>
      <point x="20" y="250" type="curve"/>
      <point x="30" y="250"/>
      <point x="42" y="260"/>
      <point x="72" y="260" type="curve" smooth="yes"/>
      <point x="110" y="260"/>
      <point x="124" y="254"/>
      <point x="124" y="218" type="curve" smooth="yes"/>
      <point x="124" y="207"/>
      <point x="122" y="193"/>
      <point x="120" y="175" type="curve" smooth="yes"/>
      <point x="114" y="130"/>
      <point x="102" y="120"/>
      <point x="99" y="100" type="curve"/>
      <point x="119" y="100"/>
      <point x="131" y="110"/>
      <point x="176" y="110" type="curve"/>
      <point x="221" y="110"/>
      <point x="229" y="100"/>
      <point x="249" y="100" type="curve"/>
      <point x="250" y="103"/>
      <point x="250" y="106"/>
      <point x="250" y="109" type="curve" smooth="yes"/>
      <point x="250" y="119"/>
      <point x="248" y="128"/>
      <point x="248" y="144" type="curve" smooth="yes"/>
      <point x="248" y="152"/>
      <point x="248" y="162"/>
      <point x="250" y="175" type="curve"/>
      <point x="260" y="250"/>
      <point x="277" y="260"/>
      <point x="297" y="260" type="curve"/>
      <point x="312" y="260"/>
      <point x="323" y="254"/>
      <point x="323" y="218" type="curve" smooth="yes"/>
      <point x="323" y="207"/>
      <point x="322" y="193"/>
      <point x="320" y="175" type="curve"/>
      <point x="314" y="130"/>
      <point x="302" y="120"/>
      <point x="299" y="100" type="curve"/>
      <point x="319" y="100"/>
      <point x="331" y="110"/>
      <point x="376" y="110" type="curve"/>
      <point x="421" y="110"/>
      <point x="429" y="100"/>
      <point x="449" y="100" type="curve"/>
      <point x="450" y="103"/>
      <point x="450" y="106"/>
      <point x="450" y="109" type="curve" smooth="yes"/>
      <point x="450" y="119"/>
      <point x="448" y="128"/>
      <point x="448" y="144" type="curve" smooth="yes"/>
      <point x="448" y="152"/>
      <point x="448" y="162"/>
      <point x="450" y="175" type="curve" smooth="yes"/>
      <point x="460" y="250"/>
      <point x="472" y="260"/>
      <point x="523" y="260" type="curve"/>
      <point x="552" y="260"/>
      <point x="560" y="250"/>
      <point x="570" y="250" type="curve"/>
    </contour>
    <contour>
      <point x="283" y="370"/>
      <point x="274" y="383"/>
      <point x="274" y="407" type="curve" smooth="yes"/>
      <point x="274" y="413"/>
      <point x="274" y="419"/>
      <point x="275" y="425" type="curve"/>
      <point x="280" y="460"/>
      <point x="293" y="480"/>
      <point x="328" y="480" type="curve"/>
      <point x="357" y="480"/>
      <point x="366" y="467"/>
      <point x="366" y="443" type="curve" smooth="yes"/>
      <point x="366" y="437"/>
      <point x="366" y="431"/>
      <point x="365" y="425" type="curve"/>
      <point x="360" y="390"/>
      <point x="347" y="370"/>
      <point x="312" y="370" type="curve"/>
    </contour>
  </outline>
</glyph>
<glyph name="ampersand" format="1">
  <advance width="850"/>
  <unicode hex="0026"/>
  <outline>
    <contour>
      <point x="170" y="0" type="line"/>
      <point x="170" y="50"/>
      <point x="70" y="150"/>
      <point x="20" y="150" type="curve"/>
      <point x="20" y="170"/>
      <point x="30" y="180"/>
      <point x="30" y="225" type="curve"/>
      <point x="30" y="270"/>
      <point x="20" y="280"/>
      <point x="20" y="300" type="curve"/>
      <point x="70" y="300"/>
      <point x="170" y="450"/>
      <point x="170" y="500" type="curve"/>
      <point x="180" y="500"/>
      <point x="190" y="490"/>
      <point x="220" y="490" type="curve" smooth="yes"/>
      <point x="270" y="490"/>
      <point x="295" y="500"/>
      <point x="295" y="510" type="curve"/>
      <point x="295" y="520"/>
      <point x="240" y="600"/>
      <point x="220" y="600" type="curve"/>
      <point x="270" y="600"/>
      <point x="320" y="700"/>
      <point x="320" y="750" type="curve"/>
      <point x="570" y="750" type="line"/>
      <point x="570" y="700"/>
      <point x="620" y="650"/>
      <point x="670" y="650" type="curve"/>
      <point x="670" y="630"/>
      <point x="660" y="620"/>
      <point x="660" y="575" type="curve"/>
      <point x="660" y="530"/>
      <point x="670" y="520"/>
      <point x="670" y="500" type="curve"/>
      <point x="650" y="500"/>
      <point x="640" y="510"/>
      <point x="595" y="510" type="curve" smooth="yes"/>
      <point x="560" y="510"/>
      <point x="520" y="500"/>
      <point x="520" y="490" type="curve"/>
      <point x="520" y="480"/>
      <point x="570" y="350"/>
      <point x="580" y="350" type="curve"/>
      <point x="590" y="350"/>
      <point x="670" y="440"/>
      <point x="670" y="450" type="curve"/>
      <point x="680" y="450"/>
      <point x="690" y="440"/>
      <point x="720" y="440" type="curve"/>
      <point x="750" y="440"/>
      <point x="760" y="450"/>
      <point x="770" y="450" type="curve"/>
      <point x="770" y="430"/>
      <point x="760" y="420"/>
      <point x="760" y="375" type="curve"/>
      <point x="760" y="330"/>
      <point x="770" y="320"/>
      <point x="770" y="300" type="curve"/>
      <point x="760" y="300"/>
      <point x="750" y="310"/>
      <point x="720" y="310" type="curve"/>
      <point x="670" y="310"/>
      <point x="620" y="260"/>
      <point x="620" y="250" type="curve"/>
      <point x="620" y="240"/>
      <point x="670" y="140"/>
      <point x="720" y="140" type="curve"/>
      <point x="750" y="140"/>
      <point x="760" y="150"/>
      <point x="770" y="150" type="curve"/>
      <point x="770" y="130"/>
      <point x="760" y="120"/>
      <point x="760" y="75" type="curve"/>
      <point x="760" y="30"/>
      <point x="770" y="20"/>
      <point x="770" y="0" type="curve"/>
      <point x="520" y="0" type="line"/>
      <point x="520" y="20"/>
      <point x="500" y="90"/>
      <point x="490" y="90" type="curve"/>
      <point x="480" y="90"/>
      <point x="420" y="20"/>
      <point x="420" y="0" type="curve"/>
    </contour>
    <contour>
      <point x="385" y="150"/>
      <point x="440" y="200"/>
      <point x="440" y="210" type="curve"/>
      <point x="440" y="230"/>
      <point x="355" y="400"/>
      <point x="345" y="400" type="curve"/>
      <point x="335" y="400"/>
      <point x="250" y="340"/>
      <point x="250" y="250" type="curve"/>
      <point x="250" y="200"/>
      <point x="295" y="150"/>
      <point x="345" y="150" type="curve"/>
    </contour>
    <contour>
      <point x="470" y="600"/>
      <point x="470" y="560"/>
      <point x="470" y="550" type="curve"/>
      <point x="490" y="550"/>
      <point x="520" y="570"/>
      <point x="520" y="620" type="curve"/>
      <point x="520" y="640"/>
      <point x="510" y="650"/>
      <point x="495" y="650" type="curve" smooth="yes"/>
      <point x="480" y="650"/>
      <point x="470" y="640"/>
      <point x="470" y="620" type="curve"/>
    </contour>
  </outline>
</glyph>
<glyph name="quotesingle" format="1">
  <advance width="250"/>
  <unicode hex="0027"/>
  <outline>
    <contour>
      <point x="70" y="600" type="curve"/>
      <point x="120" y="600" type="line"/>
      <point x="120" y="650"/>
      <point x="160" y="800"/>
      <point x="170" y="800" type="curve"/>
      <point x="20" y="800" type="line"/>
      <point x="30" y="800"/>
      <point x="70" y="650"/>
    </contour>
  </outline>
</glyph>
<glyph name="parenleft" format="1">
  <advance width="400"/>
  <unicode hex="0028"/>
  <outline>
    <contour>
      <point x="40" y="375" type="curve"/>
      <point x="40" y="130"/>
      <point x="20" y="120"/>
      <point x="20" y="100" type="curve"/>
      <point x="70" y="100"/>
      <point x="170" y="0"/>
      <point x="170" y="-50" type="curve"/>
      <point x="320" y="-50" type="line"/>
      <point x="320" y="-30"/>
      <point x="310" y="-20"/>
      <point x="310" y="25" type="curve" smooth="yes"/>
      <point x="310" y="70"/>
      <point x="320" y="80"/>
      <point x="320" y="100" type="curve"/>
      <point x="310" y="100"/>
      <point x="300" y="90"/>
      <point x="270" y="90" type="curve"/>
      <point x="220" y="90"/>
      <point x="200" y="270"/>
      <point x="200" y="375" type="curve"/>
      <point x="200" y="480"/>
      <point x="220" y="660"/>
      <point x="270" y="660" type="curve"/>
      <point x="300" y="660"/>
      <point x="310" y="650"/>
      <point x="320" y="650" type="curve"/>
      <point x="320" y="670"/>
      <point x="310" y="680"/>
      <point x="310" y="725" type="curve" smooth="yes"/>
      <point x="310" y="770"/>
      <point x="320" y="780"/>
      <point x="320" y="800" type="curve"/>
      <point x="170" y="800" type="line"/>
      <point x="170" y="750"/>
      <point x="70" y="650"/>
      <point x="20" y="650" type="curve"/>
      <point x="20" y="630"/>
      <point x="40" y="620"/>
    </contour>
  </outline>
</glyph>
<glyph name="plus" format="1">
  <advance width="550"/>
  <unicode hex="002B"/>
  <outline>
    <contour>
      <point x="20" y="300" type="curve"/>
      <point x="40" y="300"/>
      <point x="50" y="310"/>
      <point x="245" y="310" type="curve"/>
      <point x="440" y="310"/>
      <point x="450" y="300"/>
      <point x="470" y="300" type="curve"/>
      <point x="470" y="320"/>
      <point x="460" y="330"/>
      <point x="460" y="375" type="curve"/>
      <point x="460" y="420"/>
      <point x="470" y="430"/>
      <point x="470" y="450" type="curve"/>
      <point x="450" y="450"/>
      <point x="440" y="440"/>
      <point x="245" y="440" type="curve"/>
      <point x="50" y="440"/>
      <point x="40" y="450"/>
      <point x="20" y="450" type="curve"/>
      <point x="20" y="430"/>
      <point x="30" y="420"/>
      <point x="30" y="375" type="curve"/>
      <point x="30" y="330"/>
      <point x="20" y="320"/>
    </contour>
    <contour>
      <point x="170" y="600" type="curve"/>
      <point x="170" y="580"/>
      <point x="180" y="570"/>
      <point x="180" y="375" type="curve"/>
      <point x="180" y="180"/>
      <point x="170" y="170"/>
      <point x="170" y="150" type="curve"/>
      <point x="190" y="150"/>
      <point x="200" y="160"/>
      <point x="245" y="160" type="curve"/>
      <point x="290" y="160"/>
      <point x="300" y="150"/>
      <point x="320" y="150" type="curve"/>
      <point x="320" y="170"/>
      <point x="310" y="180"/>
      <point x="310" y="375" type="curve"/>
      <point x="310" y="570"/>
      <point x="320" y="580"/>
      <point x="320" y="600" type="curve"/>
      <point x="300" y="600"/>
      <point x="290" y="590"/>
      <point x="245" y="590" type="curve"/>
      <point x="200" y="590"/>
      <point x="190" y="600"/>
    </contour>
  </outline>
</glyph>
<glyph name="zero" format="1">
  <advance width="700"/>
  <unicode hex="0030"/>
  <outline>
    <contour>
      <point x="320" y="140" type="curve"/>
      <point x="270" y="140"/>
      <point x="225" y="180"/>
      <point x="225" y="375" type="curve"/>
      <point x="225" y="570"/>
      <point x="270" y="610"/>
      <point x="320" y="610" type="curve"/>
      <point x="370" y="610"/>
      <point x="415" y="570"/>
      <point x="415" y="375" type="curve"/>
      <point x="415" y="180"/>
      <point x="370" y="140"/>
    </contour>
    <contour>
      <point x="170" y="0" type="curve"/>
      <point x="470" y="0" type="line"/>
      <point x="470" y="50"/>
      <point x="570" y="150"/>
      <point x="620" y="150" type="curve"/>
      <point x="620" y="190"/>
      <point x="600" y="200"/>
      <point x="600" y="375" type="curve"/>
      <point x="600" y="570"/>
      <point x="620" y="580"/>
      <point x="620" y="600" type="curve"/>
      <point x="570" y="600"/>
      <point x="470" y="700"/>
      <point x="470" y="750" type="curve"/>
      <point x="170" y="750" type="line"/>
      <point x="170" y="700"/>
      <point x="70" y="600"/>
      <point x="20" y="600" type="curve"/>
      <point x="20" y="580"/>
      <point x="40" y="570"/>
      <point x="40" y="375" type="curve"/>
      <point x="40" y="180"/>
      <point x="20" y="170"/>
      <point x="20" y="150" type="curve"/>
      <point x="70" y="150"/>
      <point x="170" y="50"/>
    </contour>
  </outline>
</glyph>
<glyph name="one" format="1">
  <advance width="440"/>
  <unicode hex="0031"/>
  <outline>
    <contour>
      <point x="90" y="375" type="curve"/>
      <point x="90" y="200"/>
      <point x="70" y="140"/>
      <point x="40" y="140" type="curve"/>
      <point x="20" y="140"/>
      <point x="10" y="150"/>
      <point x="0" y="150" type="curve"/>
      <point x="0" y="130"/>
      <point x="9" y="120"/>
      <point x="10" y="75" type="curve" smooth="yes"/>
      <point x="11" y="31"/>
      <point x="0" y="20"/>
      <point x="0" y="0" type="curve"/>
      <point x="360" y="0" type="line"/>
      <point x="360" y="20"/>
      <point x="350" y="30"/>
      <point x="350" y="75" type="curve" smooth="yes"/>
      <point x="350" y="120"/>
      <point x="360" y="130"/>
      <point x="360" y="150" type="curve"/>
      <point x="350" y="150"/>
      <point x="340" y="140"/>
      <point x="320" y="140" type="curve"/>
      <point x="290" y="140"/>
      <point x="270" y="200"/>
      <point x="270" y="375" type="curve"/>
      <point x="270" y="690"/>
      <point x="290" y="700"/>
      <point x="290" y="750" type="curve"/>
      <point x="160" y="750" type="line"/>
      <point x="160" y="700"/>
      <point x="50" y="649"/>
      <point x="0" y="650" type="curve"/>
      <point x="0" y="640"/>
      <point x="10" y="630"/>
      <point x="10" y="575" type="curve" smooth="yes"/>
      <point x="10" y="520"/>
      <point x="0" y="510"/>
      <point x="0" y="500" type="curve"/>
      <point x="10" y="500"/>
      <point x="20" y="510"/>
      <point x="40" y="510" type="curve"/>
      <point x="70" y="510"/>
      <point x="90" y="480"/>
    </contour>
  </outline>
</glyph>
<glyph name="three" format="1">
  <advance width="700"/>
  <unicode hex="0033"/>
  <outline>
    <contour>
      <point x="470" y="0" type="line"/>
      <point x="470" y="50"/>
      <point x="570" y="150"/>
      <point x="620" y="150" type="curve"/>
      <point x="620" y="170"/>
      <point x="610" y="180"/>
      <point x="610" y="225" type="curve"/>
      <point x="610" y="270"/>
      <point x="620" y="280"/>
      <point x="620" y="300" type="curve"/>
      <point x="570" y="300"/>
      <point x="470" y="365"/>
      <point x="470" y="375" type="curve"/>
      <point x="470" y="385"/>
      <point x="570" y="450"/>
      <point x="620" y="450" type="curve"/>
      <point x="620" y="470"/>
      <point x="610" y="480"/>
      <point x="610" y="525" type="curve"/>
      <point x="610" y="570"/>
      <point x="620" y="580"/>
      <point x="620" y="600" type="curve"/>
      <point x="570" y="600"/>
      <point x="470" y="700"/>
      <point x="470" y="750" type="curve"/>
      <point x="170" y="750" type="line"/>
      <point x="170" y="700"/>
      <point x="70" y="650"/>
      <point x="20" y="650" type="curve"/>
      <point x="20" y="630"/>
      <point x="30" y="620"/>
      <point x="30" y="565" type="curve"/>
      <point x="30" y="510"/>
      <point x="20" y="500"/>
      <point x="20" y="480" type="curve"/>
      <point x="40" y="480"/>
      <point x="50" y="490"/>
      <point x="120" y="490" type="curve"/>
      <point x="190" y="490"/>
      <point x="200" y="480"/>
      <point x="220" y="480" type="curve"/>
      <point x="220" y="500"/>
      <point x="210" y="510"/>
      <point x="210" y="545" type="curve"/>
      <point x="210" y="580"/>
      <point x="240" y="610"/>
      <point x="290" y="610" type="curve"/>
      <point x="340" y="610"/>
      <point x="370" y="580"/>
      <point x="370" y="525" type="curve"/>
      <point x="370" y="470"/>
      <point x="340" y="440"/>
      <point x="295" y="440" type="curve"/>
      <point x="250" y="440"/>
      <point x="240" y="450"/>
      <point x="220" y="450" type="curve"/>
      <point x="220" y="430"/>
      <point x="230" y="420"/>
      <point x="230" y="390" type="curve"/>
      <point x="230" y="360"/>
      <point x="220" y="350"/>
      <point x="220" y="330" type="curve"/>
      <point x="240" y="330"/>
      <point x="250" y="340"/>
      <point x="295" y="340" type="curve"/>
      <point x="340" y="340"/>
      <point x="370" y="305"/>
      <point x="370" y="240" type="curve"/>
      <point x="370" y="175"/>
      <point x="340" y="140"/>
      <point x="290" y="140" type="curve"/>
      <point x="240" y="140"/>
      <point x="210" y="175"/>
      <point x="210" y="220" type="curve"/>
      <point x="210" y="265"/>
      <point x="220" y="280"/>
      <point x="220" y="300" type="curve"/>
      <point x="200" y="300"/>
      <point x="190" y="290"/>
      <point x="120" y="290" type="curve"/>
      <point x="50" y="290"/>
      <point x="40" y="300"/>
      <point x="20" y="300" type="curve"/>
      <point x="20" y="280"/>
      <point x="30" y="270"/>
      <point x="30" y="200" type="curve"/>
      <point x="30" y="130"/>
      <point x="20" y="120"/>
      <point x="20" y="100" type="curve"/>
      <point x="70" y="100"/>
      <point x="170" y="50"/>
      <point x="170" y="0" type="curve"/>
    </contour>
  </outline>
</glyph>
<glyph name="four" format="1">
  <advance width="730"/>
  <unicode hex="0034"/>
  <outline>
    <contour>
      <point x="160" y="0" type="line"/>
      <point x="160" y="20"/>
      <point x="170" y="30"/>
      <point x="170" y="71" type="curve"/>
      <point x="170" y="120"/>
      <point x="160" y="130"/>
      <point x="160" y="150" type="curve"/>
      <point x="170" y="150"/>
      <point x="180" y="140"/>
      <point x="210" y="140" type="curve"/>
      <point x="260" y="140"/>
      <point x="273" y="260"/>
      <point x="273" y="270" type="curve"/>
      <point x="30" y="270"/>
      <point x="20" y="250"/>
      <point x="0" y="250" type="curve"/>
      <point x="0" y="270"/>
      <point x="10" y="290"/>
      <point x="10" y="330" type="curve"/>
      <point x="10" y="370"/>
      <point x="0" y="380"/>
      <point x="0" y="400" type="curve"/>
      <point x="50" y="400"/>
      <point x="320" y="700"/>
      <point x="320" y="750" type="curve"/>
      <point x="440" y="750" type="line"/>
      <point x="440" y="700"/>
      <point x="420" y="690"/>
      <point x="420" y="390" type="curve"/>
      <point x="490" y="390"/>
      <point x="500" y="400"/>
      <point x="520" y="400" type="curve"/>
      <point x="520" y="380"/>
      <point x="510" y="370"/>
      <point x="510" y="330" type="curve"/>
      <point x="510" y="290"/>
      <point x="520" y="270"/>
      <point x="520" y="250" type="curve"/>
      <point x="500" y="250"/>
      <point x="493" y="270"/>
      <point x="427" y="270" type="curve"/>
      <point x="427" y="260"/>
      <point x="420" y="140"/>
      <point x="470" y="140" type="curve"/>
      <point x="500" y="140"/>
      <point x="510" y="150"/>
      <point x="520" y="150" type="curve"/>
      <point x="520" y="130"/>
      <point x="510" y="120"/>
      <point x="510" y="75" type="curve"/>
      <point x="510" y="30"/>
      <point x="520" y="20"/>
      <point x="520" y="0" type="curve"/>
    </contour>
    <contour>
      <point x="290" y="390" type="line"/>
      <point x="290" y="510" type="line"/>
      <point x="170" y="390" type="line"/>
    </contour>
  </outline>
</glyph>
<glyph name="seven" format="1">
  <advance width="700"/>
  <unicode hex="0037"/>
  <outline>
    <contour>
      <point x="220" y="0" type="line"/>
      <point x="220" y="50"/>
      <point x="370" y="300"/>
      <point x="370" y="525" type="curve"/>
      <point x="370" y="580"/>
      <point x="340" y="610"/>
      <point x="290" y="610" type="curve"/>
      <point x="240" y="610"/>
      <point x="210" y="580"/>
      <point x="210" y="545" type="curve"/>
      <point x="210" y="510"/>
      <point x="220" y="500"/>
      <point x="220" y="480" type="curve"/>
      <point x="200" y="480"/>
      <point x="190" y="490"/>
      <point x="120" y="490" type="curve"/>
      <point x="50" y="490"/>
      <point x="40" y="480"/>
      <point x="20" y="480" type="curve"/>
      <point x="20" y="500"/>
      <point x="30" y="510"/>
      <point x="30" y="615" type="curve"/>
      <point x="30" y="720"/>
      <point x="20" y="730"/>
      <point x="20" y="750" type="curve"/>
      <point x="620" y="750" type="line"/>
      <point x="620" y="700"/>
      <point x="470" y="300"/>
      <point x="470" y="0" type="curve"/>
    </contour>
  </outline>
</glyph>
<glyph name="eight" format="1">
  <advance width="580"/>
  <unicode hex="0038"/>
  <outline>
    <contour>
      <point x="150" y="0" type="curve"/>
      <point x="350" y="0" type="line"/>
      <point x="350" y="50"/>
      <point x="450" y="150"/>
      <point x="500" y="150" type="curve"/>
      <point x="500" y="170"/>
      <point x="490" y="175"/>
      <point x="490" y="225" type="curve"/>
      <point x="490" y="275"/>
      <point x="500" y="280"/>
      <point x="500" y="300" type="curve"/>
      <point x="450" y="300"/>
      <point x="350" y="365"/>
      <point x="350" y="375" type="curve"/>
      <point x="350" y="385"/>
      <point x="450" y="450"/>
      <point x="500" y="450" type="curve"/>
      <point x="500" y="470"/>
      <point x="490" y="475"/>
      <point x="490" y="525" type="curve"/>
      <point x="490" y="565"/>
      <point x="500" y="580"/>
      <point x="500" y="600" type="curve"/>
      <point x="450" y="600"/>
      <point x="350" y="700"/>
      <point x="350" y="750" type="curve"/>
      <point x="150" y="750" type="line"/>
      <point x="150" y="700"/>
      <point x="50" y="600"/>
      <point x="0" y="600" type="curve"/>
      <point x="0" y="580"/>
      <point x="10" y="575"/>
      <point x="10" y="525" type="curve"/>
      <point x="10" y="475"/>
      <point x="0" y="470"/>
      <point x="0" y="450" type="curve"/>
      <point x="50" y="450"/>
      <point x="150" y="385"/>
      <point x="150" y="375" type="curve"/>
      <point x="150" y="365"/>
      <point x="50" y="299"/>
      <point x="0" y="300" type="curve"/>
      <point x="0" y="280"/>
      <point x="10" y="275"/>
      <point x="10" y="225" type="curve"/>
      <point x="10" y="175"/>
      <point x="0" y="170"/>
      <point x="0" y="150" type="curve"/>
      <point x="50" y="150"/>
      <point x="150" y="50"/>
    </contour>
    <contour>
      <point x="220" y="440"/>
      <point x="195" y="475"/>
      <point x="195" y="525" type="curve"/>
      <point x="195" y="575"/>
      <point x="220" y="610"/>
      <point x="250" y="610" type="curve"/>
      <point x="280" y="610"/>
      <point x="305" y="575"/>
      <point x="305" y="525" type="curve"/>
      <point x="305" y="475"/>
      <point x="280" y="440"/>
      <point x="250" y="440" type="curve"/>
    </contour>
    <contour>
      <point x="220" y="140"/>
      <point x="195" y="175"/>
      <point x="195" y="225" type="curve"/>
      <point x="195" y="275"/>
      <point x="220" y="310"/>
      <point x="250" y="310" type="curve"/>
      <point x="280" y="310"/>
      <point x="305" y="275"/>
      <point x="305" y="225" type="curve"/>
      <point x="305" y="175"/>
      <point x="280" y="140"/>
      <point x="250" y="140" type="curve"/>
    </contour>
  </outline>
</glyph>
<glyph name="at" format="1">
  <advance width="980"/>
  <unicode hex="0040"/>
  <note>
    Should the at be the same x-height as the a? Or should it be slightly smaller so the circle portion of the at sign fits within the ascendor line
  </note>
  <outline>
    <contour>
      <point x="900" y="220"/>
      <point x="880" y="230"/>
      <point x="880" y="425" type="curve" smooth="yes"/>
      <point x="880" y="620"/>
      <point x="900" y="630"/>
      <point x="900" y="650" type="curve"/>
      <point x="850" y="650"/>
      <point x="700" y="750"/>
      <point x="700" y="800" type="curve"/>
      <point x="680" y="800"/>
      <point x="670" y="780"/>
      <point x="450" y="780" type="curve"/>
      <point x="230" y="780"/>
      <point x="220" y="800"/>
      <point x="200" y="800" type="curve"/>
      <point x="200" y="750"/>
      <point x="50" y="650"/>
      <point x="0" y="650" type="curve"/>
      <point x="0" y="630"/>
      <point x="20" y="620"/>
      <point x="20" y="325" type="curve"/>
      <point x="20" y="30"/>
      <point x="0" y="20"/>
      <point x="0" y="0" type="curve"/>
      <point x="50" y="0"/>
      <point x="200" y="-100"/>
      <point x="200" y="-150" type="curve"/>
      <point x="220" y="-150"/>
      <point x="230" y="-130"/>
      <point x="400" y="-130" type="curve"/>
      <point x="570" y="-130"/>
      <point x="580" y="-150"/>
      <point x="600" y="-150" type="curve"/>
      <point x="600" y="-100"/>
      <point x="650" y="-50"/>
      <point x="700" y="-50" type="curve"/>
      <point x="700" y="0" type="line"/>
      <point x="680" y="0"/>
      <point x="670" y="-20"/>
      <point x="400" y="-20" type="curve"/>
      <point x="230" y="-20"/>
      <point x="130" y="30"/>
      <point x="130" y="325" type="curve"/>
      <point x="130" y="620"/>
      <point x="230" y="670"/>
      <point x="450" y="670" type="curve"/>
      <point x="670" y="670"/>
      <point x="770" y="620"/>
      <point x="770" y="425" type="curve"/>
      <point x="770" y="230"/>
      <point x="750" y="190"/>
      <point x="725" y="190" type="curve"/>
      <point x="700" y="190"/>
      <point x="660" y="230"/>
      <point x="660" y="325" type="curve"/>
      <point x="660" y="420"/>
      <point x="680" y="430"/>
      <point x="680" y="450" type="curve"/>
      <point x="640" y="450"/>
      <point x="560" y="530"/>
      <point x="560" y="570" type="curve"/>
      <point x="350" y="570" type="line"/>
      <point x="350" y="534"/>
      <point x="306" y="490"/>
      <point x="270" y="490" type="curve"/>
      <point x="270" y="480"/>
      <point x="280" y="470"/>
      <point x="280" y="450" type="curve"/>
      <point x="280" y="430"/>
      <point x="270" y="420"/>
      <point x="270" y="410" type="curve"/>
      <point x="290" y="410"/>
      <point x="300" y="419"/>
      <point x="330" y="419" type="curve"/>
      <point x="360" y="419"/>
      <point x="370" y="410"/>
      <point x="390" y="410" type="curve"/>
      <point x="390" y="430"/>
      <point x="410" y="450"/>
      <point x="460" y="450" type="curve"/>
      <point x="500" y="450"/>
      <point x="530" y="430"/>
      <point x="530" y="410" type="curve"/>
      <point x="530" y="370"/>
      <point x="480" y="350"/>
      <point x="440" y="350" type="curve" smooth="yes"/>
      <point x="380" y="350"/>
      <point x="370" y="360"/>
      <point x="350" y="360" type="curve"/>
      <point x="350" y="320"/>
      <point x="270" y="280"/>
      <point x="230" y="280" type="curve"/>
      <point x="230" y="270"/>
      <point x="240" y="260"/>
      <point x="240" y="220" type="curve"/>
      <point x="240" y="180"/>
      <point x="230" y="170"/>
      <point x="230" y="160" type="curve"/>
      <point x="270" y="160"/>
      <point x="310" y="120"/>
      <point x="310" y="80" type="curve"/>
      <point x="490" y="80" type="line"/>
      <point x="490" y="100"/>
      <point x="515" y="126"/>
      <point x="525" y="126" type="curve"/>
      <point x="535" y="126"/>
      <point x="560" y="100"/>
      <point x="560" y="80" type="curve"/>
      <point x="760" y="80" type="line"/>
      <point x="760" y="125"/>
      <point x="850" y="200"/>
      <point x="900" y="200" type="curve"/>
    </contour>
    <contour>
      <point x="525" y="295" type="line"/>
      <point x="525" y="215"/>
      <point x="480" y="175"/>
      <point x="440" y="175" type="curve" smooth="yes"/>
      <point x="410" y="175"/>
      <point x="395" y="200"/>
      <point x="395" y="222" type="curve" smooth="yes"/>
      <point x="395" y="260"/>
      <point x="430" y="295"/>
      <point x="500" y="295" type="curve"/>
    </contour>
  </outline>
</glyph>
<glyph name="A" format="1">
  <advance width="820"/>
  <unicode hex="0041"/>
  <outline>
    <contour>
      <point x="320" y="0" type="line"/>
      <point x="20" y="0" type="line"/>
      <point x="20" y="150" type="line"/>
      <point x="320" y="150" type="line"/>
    </contour>
    <contour>
      <point x="740" y="0" type="line"/>
      <point x="380" y="0" type="line"/>
      <point x="380" y="150" type="line"/>
      <point x="740" y="150" type="line"/>
    </contour>
    <contour>
      <point x="100" y="150" type="line"/>
      <point x="240" y="150" type="line"/>
      <point x="440" y="750" type="line"/>
      <point x="300" y="750" type="line"/>
    </contour>
    <contour>
      <point x="660" y="150" type="line"/>
      <point x="500" y="750" type="line"/>
      <point x="300" y="750" type="line"/>
      <point x="460" y="150" type="line"/>
    </contour>
    <contour>
      <point x="270" y="250" type="line"/>
      <point x="470" y="250" type="line"/>
      <point x="470" y="350" type="line"/>
      <point x="270" y="350" type="line"/>
    </contour>
  </outline>
</glyph>
<glyph name="B" format="1">
  <advance width="720"/>
  <unicode hex="0042"/>
  <outline>
    <contour>
      <point x="110" y="375" type="curve"/>
      <point x="110" y="200"/>
      <point x="90" y="140"/>
      <point x="60" y="140" type="curve"/>
      <point x="40" y="140"/>
      <point x="30" y="150"/>
      <point x="20" y="150" type="curve"/>
      <point x="20" y="130"/>
      <point x="29" y="120"/>
      <point x="30" y="75" type="curve" smooth="yes"/>
      <point x="31" y="31"/>
      <point x="20" y="20"/>
      <point x="20" y="0" type="curve"/>
      <point x="490" y="0" type="line"/>
      <point x="490" y="50"/>
      <point x="590" y="150"/>
      <point x="640" y="150" type="curve"/>
      <point x="640" y="170"/>
      <point x="630" y="180"/>
      <point x="630" y="226" type="curve" smooth="yes"/>
      <point x="630" y="270"/>
      <point x="640" y="280"/>
      <point x="640" y="300" type="curve"/>
      <point x="620" y="300"/>
      <point x="520" y="365"/>
      <point x="520" y="375" type="curve"/>
      <point x="520" y="385"/>
      <point x="620" y="450"/>
      <point x="640" y="450" type="curve"/>
      <point x="640" y="470"/>
      <point x="630" y="480"/>
      <point x="630" y="525" type="curve" smooth="yes"/>
      <point x="630" y="570"/>
      <point x="640" y="580"/>
      <point x="640" y="600" type="curve"/>
      <point x="590" y="600"/>
      <point x="490" y="700"/>
      <point x="490" y="750" type="curve"/>
      <point x="20" y="750" type="line"/>
      <point x="20" y="730"/>
      <point x="30" y="720"/>
      <point x="30" y="675" type="curve" smooth="yes"/>
      <point x="30" y="630"/>
      <point x="20" y="620"/>
      <point x="20" y="600" type="curve"/>
      <point x="30" y="600"/>
      <point x="40" y="610"/>
      <point x="60" y="610" type="curve"/>
      <point x="90" y="610"/>
      <point x="110" y="550"/>
    </contour>
    <contour>
      <point x="335" y="150"/>
      <point x="290" y="200"/>
      <point x="290" y="310" type="curve"/>
      <point x="320" y="310" type="line"/>
      <point x="440" y="310"/>
      <point x="460" y="250"/>
      <point x="460" y="215" type="curve" smooth="yes"/>
      <point x="460" y="180"/>
      <point x="435" y="150"/>
      <point x="395" y="150" type="curve" smooth="yes"/>
    </contour>
    <contour>
      <point x="290" y="550"/>
      <point x="335" y="600"/>
      <point x="395" y="600" type="curve" smooth="yes"/>
      <point x="435" y="600"/>
      <point x="460" y="570"/>
      <point x="460" y="535" type="curve" smooth="yes"/>
      <point x="460" y="500"/>
      <point x="440" y="440"/>
      <point x="320" y="440" type="curve"/>
      <point x="290" y="440" type="line"/>
    </contour>
  </outline>
</glyph>
<glyph name="C" format="1">
  <advance width="520"/>
  <unicode hex="0043"/>
  <outline>
    <contour>
      <point x="520" y="300" type="curve"/>
      <point x="500" y="300"/>
      <point x="490" y="290"/>
      <point x="430" y="290" type="curve" smooth="yes"/>
      <point x="370" y="290"/>
      <point x="360" y="300"/>
      <point x="340" y="300" type="curve"/>
      <point x="340" y="280"/>
      <point x="350" y="270"/>
      <point x="350" y="225" type="curve" smooth="yes"/>
      <point x="350" y="160"/>
      <point x="310" y="150"/>
      <point x="280" y="150" type="curve" smooth="yes"/>
      <point x="250" y="150"/>
      <point x="210" y="180"/>
      <point x="210" y="375" type="curve" smooth="yes"/>
      <point x="210" y="570"/>
      <point x="250" y="600"/>
      <point x="280" y="600" type="curve" smooth="yes"/>
      <point x="310" y="600"/>
      <point x="350" y="590"/>
      <point x="350" y="525" type="curve"/>
      <point x="350" y="480"/>
      <point x="340" y="470"/>
      <point x="340" y="450" type="curve"/>
      <point x="360" y="450"/>
      <point x="370" y="460"/>
      <point x="430" y="460" type="curve"/>
      <point x="490" y="460"/>
      <point x="500" y="450"/>
      <point x="520" y="450" type="curve"/>
      <point x="520" y="470"/>
      <point x="510" y="480"/>
      <point x="510" y="600" type="curve" smooth="yes"/>
      <point x="510" y="720"/>
      <point x="520" y="730"/>
      <point x="520" y="750" type="curve"/>
      <point x="380" y="750" type="line"/>
      <point x="380" y="730"/>
      <point x="350" y="680"/>
      <point x="340" y="680" type="curve"/>
      <point x="330" y="680"/>
      <point x="300" y="730"/>
      <point x="300" y="750" type="curve"/>
      <point x="150" y="750" type="line"/>
      <point x="150" y="700"/>
      <point x="50" y="600"/>
      <point x="0" y="600" type="curve"/>
      <point x="0" y="580"/>
      <point x="20" y="570"/>
      <point x="20" y="375" type="curve"/>
      <point x="20" y="180"/>
      <point x="0" y="170"/>
      <point x="0" y="150" type="curve"/>
      <point x="50" y="150"/>
      <point x="150" y="50"/>
      <point x="150" y="0" type="curve"/>
      <point x="410" y="0" type="line"/>
      <point x="410" y="50"/>
      <point x="470" y="150"/>
      <point x="520" y="150" type="curve"/>
      <point x="520" y="170"/>
      <point x="510" y="180"/>
      <point x="510" y="225" type="curve" smooth="yes"/>
      <point x="510" y="270"/>
      <point x="520" y="280"/>
    </contour>
  </outline>
</glyph>
<glyph name="D" format="1">
  <advance width="620"/>
  <unicode hex="0044"/>
  <outline>
    <contour>
      <point x="250" y="0" type="line"/>
      <point x="470" y="0" type="line"/>
      <point x="470" y="50"/>
      <point x="570" y="150"/>
      <point x="620" y="150" type="curve"/>
      <point x="620" y="170"/>
      <point x="600" y="180"/>
      <point x="600" y="375" type="curve"/>
      <point x="600" y="570"/>
      <point x="620" y="580"/>
      <point x="620" y="600" type="curve"/>
      <point x="570" y="600"/>
      <point x="470" y="700"/>
      <point x="470" y="750" type="curve"/>
      <point x="250" y="750" type="line"/>
    </contour>
    <contour>
      <point x="340" y="150" type="curve"/>
      <point x="310" y="150"/>
      <point x="270" y="180"/>
      <point x="270" y="375" type="curve"/>
      <point x="270" y="570"/>
      <point x="310" y="600"/>
      <point x="340" y="600" type="curve"/>
      <point x="370" y="600"/>
      <point x="410" y="570"/>
      <point x="410" y="375" type="curve"/>
      <point x="410" y="180"/>
      <point x="370" y="150"/>
    </contour>
    <component base="I"/>
  </outline>
</glyph>
<glyph name="E" format="1">
  <advance width="720"/>
  <unicode hex="0045"/>
  <outline>
    <contour>
      <point x="330" y="450" type="curve"/>
      <point x="310" y="450"/>
      <point x="295" y="460"/>
      <point x="295" y="500" type="curve"/>
      <point x="295" y="550"/>
      <point x="340" y="600"/>
      <point x="410" y="600" type="curve"/>
      <point x="460" y="600"/>
      <point x="490" y="570"/>
      <point x="490" y="525" type="curve"/>
      <point x="490" y="480"/>
      <point x="480" y="470"/>
      <point x="480" y="450" type="curve"/>
      <point x="500" y="450"/>
      <point x="510" y="460"/>
      <point x="560" y="460" type="curve"/>
      <point x="610" y="460"/>
      <point x="620" y="450"/>
      <point x="640" y="450" type="curve"/>
      <point x="640" y="470"/>
      <point x="630" y="480"/>
      <point x="630" y="600" type="curve"/>
      <point x="630" y="718"/>
      <point x="640" y="730"/>
      <point x="640" y="750" type="curve"/>
      <point x="20" y="750" type="line"/>
      <point x="20" y="730"/>
      <point x="30" y="720"/>
      <point x="30" y="675" type="curve"/>
      <point x="30" y="630"/>
      <point x="20" y="620"/>
      <point x="20" y="600" type="curve"/>
      <point x="30" y="600"/>
      <point x="40" y="610"/>
      <point x="60" y="610" type="curve"/>
      <point x="100" y="610"/>
      <point x="110" y="500"/>
      <point x="110" y="375" type="curve" smooth="yes"/>
      <point x="110" y="250"/>
      <point x="100" y="140"/>
      <point x="60" y="140" type="curve"/>
      <point x="40" y="140"/>
      <point x="30" y="150"/>
      <point x="20" y="150" type="curve"/>
      <point x="20" y="130"/>
      <point x="30" y="120"/>
      <point x="30" y="75" type="curve"/>
      <point x="30" y="20"/>
      <point x="20" y="20"/>
      <point x="20" y="0" type="curve"/>
      <point x="640" y="0" type="line"/>
      <point x="640" y="20"/>
      <point x="630" y="30"/>
      <point x="630" y="150" type="curve"/>
      <point x="630" y="270"/>
      <point x="640" y="280"/>
      <point x="640" y="300" type="curve"/>
      <point x="620" y="300"/>
      <point x="610" y="290"/>
      <point x="560" y="290" type="curve"/>
      <point x="510" y="290"/>
      <point x="500" y="300"/>
      <point x="480" y="300" type="curve"/>
      <point x="480" y="280"/>
      <point x="490" y="270"/>
      <point x="490" y="225" type="curve"/>
      <point x="490" y="180"/>
      <point x="460" y="150"/>
      <point x="410" y="150" type="curve"/>
      <point x="330" y="150"/>
      <point x="290" y="200"/>
      <point x="290" y="300" type="curve"/>
      <point x="290" y="340"/>
      <point x="310" y="350"/>
      <point x="330" y="350" type="curve"/>
      <point x="340" y="350"/>
      <point x="350" y="340"/>
      <point x="350" y="310" type="curve"/>
      <point x="350" y="290"/>
      <point x="340" y="280"/>
      <point x="340" y="270" type="curve"/>
      <point x="350" y="270"/>
      <point x="360" y="280"/>
      <point x="390" y="280" type="curve"/>
      <point x="420" y="280"/>
      <point x="430" y="270"/>
      <point x="440" y="270" type="curve"/>
      <point x="440" y="290"/>
      <point x="430" y="300"/>
      <point x="430" y="400" type="curve"/>
      <point x="430" y="500"/>
      <point x="440" y="510"/>
      <point x="440" y="530" type="curve"/>
      <point x="430" y="530"/>
      <point x="420" y="520"/>
      <point x="390" y="520" type="curve"/>
      <point x="360" y="520"/>
      <point x="350" y="530"/>
      <point x="340" y="530" type="curve"/>
      <point x="340" y="520"/>
      <point x="350" y="510"/>
      <point x="350" y="490" type="curve"/>
      <point x="350" y="460"/>
      <point x="340" y="450"/>
    </contour>
  </outline>
</glyph>
<glyph name="F" format="1">
  <advance width="720"/>
  <unicode hex="0046"/>
  <outline>
    <contour>
      <point x="330" y="450" type="curve"/>
      <point x="310" y="450"/>
      <point x="295" y="460"/>
      <point x="295" y="500" type="curve"/>
      <point x="295" y="550"/>
      <point x="340" y="600"/>
      <point x="410" y="600" type="curve"/>
      <point x="460" y="600"/>
      <point x="490" y="570"/>
      <point x="490" y="525" type="curve"/>
      <point x="490" y="480"/>
      <point x="480" y="470"/>
      <point x="480" y="450" type="curve"/>
      <point x="500" y="450"/>
      <point x="510" y="460"/>
      <point x="560" y="460" type="curve"/>
      <point x="610" y="460"/>
      <point x="620" y="450"/>
      <point x="640" y="450" type="curve"/>
      <point x="640" y="470"/>
      <point x="630" y="480"/>
      <point x="630" y="600" type="curve"/>
      <point x="630" y="718"/>
      <point x="640" y="730"/>
      <point x="640" y="750" type="curve"/>
      <point x="20" y="750" type="line"/>
      <point x="20" y="730"/>
      <point x="30" y="720"/>
      <point x="30" y="675" type="curve"/>
      <point x="30" y="630"/>
      <point x="20" y="620"/>
      <point x="20" y="600" type="curve"/>
      <point x="30" y="600"/>
      <point x="40" y="610"/>
      <point x="60" y="610" type="curve"/>
      <point x="100" y="610"/>
      <point x="110" y="500"/>
      <point x="110" y="375" type="curve" smooth="yes"/>
      <point x="110" y="250"/>
      <point x="100" y="140"/>
      <point x="60" y="140" type="curve"/>
      <point x="40" y="140"/>
      <point x="30" y="150"/>
      <point x="20" y="150" type="curve"/>
      <point x="20" y="130"/>
      <point x="30" y="120"/>
      <point x="30" y="75" type="curve"/>
      <point x="30" y="20"/>
      <point x="20" y="20"/>
      <point x="20" y="0" type="curve"/>
      <point x="380" y="0" type="line"/>
      <point x="380" y="20"/>
      <point x="370" y="30"/>
      <point x="370" y="75" type="curve"/>
      <point x="370" y="120"/>
      <point x="380" y="130"/>
      <point x="380" y="150" type="curve"/>
      <point x="370" y="150"/>
      <point x="360" y="140"/>
      <point x="340" y="140" type="curve" smooth="yes"/>
      <point x="300" y="140"/>
      <point x="290" y="250"/>
      <point x="290" y="300" type="curve"/>
      <point x="290" y="340"/>
      <point x="310" y="350"/>
      <point x="330" y="350" type="curve"/>
      <point x="340" y="350"/>
      <point x="350" y="340"/>
      <point x="350" y="310" type="curve"/>
      <point x="350" y="290"/>
      <point x="340" y="280"/>
      <point x="340" y="270" type="curve"/>
      <point x="350" y="270"/>
      <point x="360" y="280"/>
      <point x="390" y="280" type="curve"/>
      <point x="420" y="280"/>
      <point x="430" y="270"/>
      <point x="440" y="270" type="curve"/>
      <point x="440" y="290"/>
      <point x="430" y="300"/>
      <point x="430" y="400" type="curve"/>
      <point x="430" y="500"/>
      <point x="440" y="510"/>
      <point x="440" y="530" type="curve"/>
      <point x="430" y="530"/>
      <point x="420" y="520"/>
      <point x="390" y="520" type="curve"/>
      <point x="360" y="520"/>
      <point x="350" y="530"/>
      <point x="340" y="530" type="curve"/>
      <point x="340" y="520"/>
      <point x="350" y="510"/>
      <point x="350" y="490" type="curve"/>
      <point x="350" y="460"/>
      <point x="340" y="450"/>
    </contour>
  </outline>
</glyph>
<glyph name="G" format="1">
  <advance width="590"/>
  <unicode hex="0047"/>
  <note>
  </note>
  <outline>
    <contour>
      <point x="590" y="390" type="curve"/>
      <point x="570" y="390"/>
      <point x="560" y="380"/>
      <point x="420" y="380" type="curve" smooth="yes"/>
      <point x="300" y="380"/>
      <point x="290" y="390"/>
      <point x="270" y="390" type="curve"/>
      <point x="270" y="370"/>
      <point x="280" y="360"/>
      <point x="280" y="315" type="curve" smooth="yes"/>
      <point x="280" y="270"/>
      <point x="270" y="260"/>
      <point x="270" y="240" type="curve"/>
      <point x="280" y="240"/>
      <point x="290" y="250"/>
      <point x="310" y="250" type="curve" smooth="yes"/>
      <point x="330" y="250"/>
      <point x="350" y="230"/>
      <point x="350" y="200" type="curve" smooth="yes"/>
      <point x="350" y="170"/>
      <point x="330" y="150"/>
      <point x="280" y="150" type="curve" smooth="yes"/>
      <point x="250" y="150"/>
      <point x="210" y="180"/>
      <point x="210" y="375" type="curve" smooth="yes"/>
      <point x="210" y="570"/>
      <point x="250" y="600"/>
      <point x="280" y="600" type="curve" smooth="yes"/>
      <point x="331" y="600"/>
      <point x="350" y="570"/>
      <point x="350" y="525" type="curve"/>
      <point x="350" y="480"/>
      <point x="340" y="470"/>
      <point x="340" y="450" type="curve"/>
      <point x="360" y="450"/>
      <point x="370" y="460"/>
      <point x="430" y="460" type="curve"/>
      <point x="490" y="460"/>
      <point x="500" y="450"/>
      <point x="520" y="450" type="curve"/>
      <point x="520" y="470"/>
      <point x="510" y="480"/>
      <point x="510" y="600" type="curve" smooth="yes"/>
      <point x="510" y="720"/>
      <point x="520" y="730"/>
      <point x="520" y="750" type="curve"/>
      <point x="380" y="750" type="line"/>
      <point x="380" y="730"/>
      <point x="350" y="680"/>
      <point x="340" y="680" type="curve"/>
      <point x="330" y="680"/>
      <point x="300" y="730"/>
      <point x="300" y="750" type="curve"/>
      <point x="150" y="750" type="line"/>
      <point x="150" y="700"/>
      <point x="50" y="600"/>
      <point x="0" y="600" type="curve"/>
      <point x="0" y="580"/>
      <point x="20" y="570"/>
      <point x="20" y="375" type="curve"/>
      <point x="20" y="180"/>
      <point x="0" y="170"/>
      <point x="0" y="150" type="curve"/>
      <point x="50" y="150"/>
      <point x="150" y="50"/>
      <point x="150" y="0" type="curve"/>
      <point x="300" y="0" type="line"/>
      <point x="300" y="20"/>
      <point x="330" y="75"/>
      <point x="340" y="75" type="curve"/>
      <point x="350" y="75"/>
      <point x="380" y="20"/>
      <point x="380" y="0" type="curve"/>
      <point x="530" y="0" type="line"/>
      <point x="530" y="50"/>
      <point x="510" y="170"/>
      <point x="510" y="200" type="curve" smooth="yes"/>
      <point x="510" y="230"/>
      <point x="530" y="250"/>
      <point x="550" y="250" type="curve" smooth="yes"/>
      <point x="570" y="250"/>
      <point x="580" y="240"/>
      <point x="590" y="240" type="curve"/>
      <point x="590" y="260"/>
      <point x="580" y="270"/>
      <point x="580" y="315" type="curve" smooth="yes"/>
      <point x="580" y="350"/>
      <point x="590" y="370"/>
    </contour>
  </outline>
</glyph>
<glyph name="H" format="1">
  <advance width="780"/>
  <unicode hex="0048"/>
  <outline>
    <contour>
      <point x="280" y="450" type="line"/>
      <point x="280" y="300" type="line"/>
      <point x="520" y="300" type="line"/>
      <point x="520" y="450" type="line"/>
    </contour>
    <component base="I" xOffset="20"/>
    <component base="I" xOffset="420"/>
  </outline>
</glyph>
<glyph name="I" format="1">
  <advance width="360"/>
  <unicode hex="0049"/>
  <outline>
    <contour>
      <point x="0" y="0" type="line"/>
      <point x="360" y="0" type="line"/>
      <point x="360" y="150" type="line"/>
      <point x="280" y="150" type="line"/>
      <point x="280" y="600" type="line"/>
      <point x="360" y="600" type="line"/>
      <point x="360" y="750" type="line"/>
      <point x="0" y="750" type="line"/>
      <point x="0" y="600" type="line"/>
      <point x="80" y="600" type="line"/>
      <point x="80" y="150" type="line"/>
      <point x="0" y="150" type="line"/>
    </contour>
  </outline>
</glyph>
<glyph name="J" format="1">
  <advance width="660"/>
  <unicode hex="004A"/>
  <outline>
    <contour>
      <point x="130" y="0" type="curve"/>
      <point x="350" y="0" type="line"/>
      <point x="350" y="50"/>
      <point x="470" y="150"/>
      <point x="520" y="150" type="curve"/>
      <point x="520" y="170"/>
      <point x="490" y="180"/>
      <point x="490" y="378" type="curve"/>
      <point x="490" y="550"/>
      <point x="510" y="610"/>
      <point x="540" y="610" type="curve"/>
      <point x="560" y="610"/>
      <point x="570" y="600"/>
      <point x="580" y="600" type="curve"/>
      <point x="580" y="620"/>
      <point x="570" y="630"/>
      <point x="570" y="675" type="curve"/>
      <point x="570" y="720"/>
      <point x="580" y="730"/>
      <point x="580" y="750" type="curve"/>
      <point x="220" y="750" type="line"/>
      <point x="220" y="730"/>
      <point x="230" y="720"/>
      <point x="230" y="675" type="curve"/>
      <point x="230" y="630"/>
      <point x="220" y="620"/>
      <point x="220" y="600" type="curve"/>
      <point x="230" y="600"/>
      <point x="240" y="610"/>
      <point x="260" y="610" type="curve"/>
      <point x="290" y="610"/>
      <point x="310" y="550"/>
      <point x="310" y="375" type="curve" smooth="yes"/>
      <point x="310" y="200"/>
      <point x="280" y="140"/>
      <point x="220" y="140" type="curve"/>
      <point x="180" y="140"/>
      <point x="170" y="180"/>
      <point x="170" y="225" type="curve"/>
      <point x="170" y="270"/>
      <point x="180" y="280"/>
      <point x="180" y="300" type="curve"/>
      <point x="160" y="300"/>
      <point x="150" y="290"/>
      <point x="100" y="290" type="curve"/>
      <point x="50" y="290"/>
      <point x="40" y="300"/>
      <point x="20" y="300" type="curve"/>
      <point x="20" y="280"/>
      <point x="30" y="270"/>
      <point x="30" y="225" type="curve"/>
      <point x="30" y="180"/>
      <point x="20" y="170"/>
      <point x="20" y="150" type="curve"/>
      <point x="70" y="150"/>
      <point x="130" y="50"/>
    </contour>
  </outline>
</glyph>
<glyph name="K" format="1">
  <advance width="860"/>
  <unicode hex="004B"/>
  <outline>
    <contour>
      <point x="380" y="0" type="line"/>
      <point x="380" y="20"/>
      <point x="370" y="25"/>
      <point x="370" y="75" type="curve" smooth="yes"/>
      <point x="370" y="125"/>
      <point x="380" y="130"/>
      <point x="380" y="150" type="curve"/>
      <point x="370" y="150"/>
      <point x="360" y="140"/>
      <point x="340" y="140" type="curve"/>
      <point x="310" y="140"/>
      <point x="295" y="210"/>
      <point x="295" y="240" type="curve"/>
      <point x="315" y="240"/>
      <point x="360" y="300"/>
      <point x="370" y="300" type="curve"/>
      <point x="390" y="300"/>
      <point x="470" y="210"/>
      <point x="470" y="170" type="curve" smooth="yes"/>
      <point x="470" y="150"/>
      <point x="450" y="140"/>
      <point x="440" y="140" type="curve"/>
      <point x="420" y="140"/>
      <point x="410" y="150"/>
      <point x="400" y="150" type="curve"/>
      <point x="400" y="130"/>
      <point x="410" y="126"/>
      <point x="410" y="75" type="curve" smooth="yes"/>
      <point x="410" y="25"/>
      <point x="400" y="20"/>
      <point x="400" y="0" type="curve"/>
      <point x="780" y="0" type="line"/>
      <point x="780" y="20"/>
      <point x="770" y="25"/>
      <point x="770" y="75" type="curve" smooth="yes"/>
      <point x="770" y="125"/>
      <point x="780" y="130"/>
      <point x="780" y="150" type="curve"/>
      <point x="770" y="150"/>
      <point x="760" y="140"/>
      <point x="740" y="140" type="curve"/>
      <point x="690" y="140"/>
      <point x="540" y="340"/>
      <point x="540" y="440" type="curve"/>
      <point x="540" y="460"/>
      <point x="670" y="610"/>
      <point x="720" y="610" type="curve"/>
      <point x="740" y="610"/>
      <point x="750" y="600"/>
      <point x="760" y="600" type="curve"/>
      <point x="760" y="620"/>
      <point x="750" y="625"/>
      <point x="750" y="675" type="curve" smooth="yes"/>
      <point x="750" y="725"/>
      <point x="760" y="730"/>
      <point x="760" y="750" type="curve"/>
      <point x="400" y="750" type="line"/>
      <point x="400" y="730"/>
      <point x="410" y="725"/>
      <point x="410" y="675" type="curve" smooth="yes"/>
      <point x="410" y="624"/>
      <point x="400" y="620"/>
      <point x="400" y="600" type="curve"/>
      <point x="410" y="600"/>
      <point x="420" y="610"/>
      <point x="440" y="610" type="curve"/>
      <point x="450" y="610"/>
      <point x="470" y="600"/>
      <point x="470" y="580" type="curve" smooth="yes"/>
      <point x="470" y="530"/>
      <point x="340" y="375"/>
      <point x="290" y="375" type="curve"/>
      <point x="290" y="550"/>
      <point x="310" y="610"/>
      <point x="340" y="610" type="curve"/>
      <point x="360" y="610"/>
      <point x="370" y="600"/>
      <point x="380" y="600" type="curve"/>
      <point x="380" y="620"/>
      <point x="370" y="625"/>
      <point x="370" y="675" type="curve" smooth="yes"/>
      <point x="370" y="725"/>
      <point x="380" y="730"/>
      <point x="380" y="750" type="curve"/>
      <point x="20" y="750" type="line"/>
      <point x="20" y="730"/>
      <point x="30" y="725"/>
      <point x="30" y="675" type="curve" smooth="yes"/>
      <point x="30" y="624"/>
      <point x="20" y="620"/>
      <point x="20" y="600" type="curve"/>
      <point x="30" y="600"/>
      <point x="40" y="610"/>
      <point x="60" y="610" type="curve"/>
      <point x="90" y="610"/>
      <point x="110" y="550"/>
      <point x="110" y="375" type="curve"/>
      <point x="110" y="200"/>
      <point x="90" y="140"/>
      <point x="60" y="140" type="curve"/>
      <point x="40" y="140"/>
      <point x="30" y="150"/>
      <point x="20" y="150" type="curve"/>
      <point x="20" y="130"/>
      <point x="30" y="126"/>
      <point x="30" y="75" type="curve" smooth="yes"/>
      <point x="30" y="25"/>
      <point x="20" y="20"/>
      <point x="20" y="0" type="curve"/>
    </contour>
    <component base="I"/>
  </outline>
</glyph>
<glyph name="L" format="1">
  <advance width="630"/>
  <unicode hex="004C"/>
  <outline>
    <contour>
      <point x="80" y="375" type="curve"/>
      <point x="80" y="200"/>
      <point x="70" y="140"/>
      <point x="40" y="140" type="curve"/>
      <point x="20" y="140"/>
      <point x="10" y="150"/>
      <point x="0" y="150" type="curve"/>
      <point x="0" y="130"/>
      <point x="9" y="120"/>
      <point x="10" y="75" type="curve" smooth="yes"/>
      <point x="11" y="31"/>
      <point x="0" y="20"/>
      <point x="0" y="0" type="curve"/>
      <point x="550" y="0" type="line"/>
      <point x="550" y="20"/>
      <point x="540" y="30"/>
      <point x="540" y="150" type="curve" smooth="yes"/>
      <point x="540" y="300"/>
      <point x="550" y="310"/>
      <point x="550" y="330" type="curve"/>
      <point x="530" y="330"/>
      <point x="520" y="320"/>
      <point x="460" y="320" type="curve" smooth="yes"/>
      <point x="400" y="320"/>
      <point x="390" y="330"/>
      <point x="370" y="330" type="curve"/>
      <point x="370" y="310"/>
      <point x="380" y="300"/>
      <point x="380" y="240" type="curve" smooth="yes"/>
      <point x="380" y="180"/>
      <point x="370" y="140"/>
      <point x="330" y="140" type="curve"/>
      <point x="280" y="140"/>
      <point x="270" y="200"/>
      <point x="270" y="375" type="curve"/>
      <point x="270" y="550"/>
      <point x="280" y="610"/>
      <point x="310" y="610" type="curve"/>
      <point x="330" y="610"/>
      <point x="340" y="600"/>
      <point x="350" y="600" type="curve"/>
      <point x="350" y="620"/>
      <point x="340" y="630"/>
      <point x="340" y="675" type="curve" smooth="yes"/>
      <point x="340" y="720"/>
      <point x="350" y="730"/>
      <point x="350" y="750" type="curve"/>
      <point x="0" y="750" type="line"/>
      <point x="0" y="730"/>
      <point x="10" y="720"/>
      <point x="10" y="675" type="curve" smooth="yes"/>
      <point x="10" y="630"/>
      <point x="0" y="620"/>
      <point x="0" y="600" type="curve"/>
      <point x="10" y="600"/>
      <point x="20" y="610"/>
      <point x="40" y="610" type="curve"/>
      <point x="70" y="610"/>
      <point x="80" y="550"/>
    </contour>
  </outline>
</glyph>
<glyph name="M" format="1">
  <advance width="880"/>
  <unicode hex="004D"/>
  <note>
    The middle bottom point seems to be to narrow?
    
    Lower negative space is symetircal / should it be?
  </note>
  <outline>
    <contour>
      <point x="450" y="450" type="line"/>
      <point x="320" y="750" type="line"/>
      <point x="0" y="750" type="line"/>
      <point x="0" y="600" type="line"/>
      <point x="80" y="600" type="line"/>
      <point x="80" y="150" type="line"/>
      <point x="0" y="150" type="line"/>
      <point x="0" y="0" type="line"/>
      <point x="280" y="0" type="line"/>
      <point x="280" y="150" type="line"/>
      <point x="200" y="150" type="line"/>
      <point x="200" y="450" type="line"/>
      <point x="400" y="0" type="line"/>
      <point x="451" y="0" type="line"/>
      <point x="600" y="450" type="line"/>
      <point x="600" y="150" type="line"/>
      <point x="520" y="150" type="line"/>
      <point x="520" y="0" type="line"/>
      <point x="880" y="0" type="line"/>
      <point x="880" y="150" type="line"/>
      <point x="800" y="150" type="line"/>
      <point x="800" y="600" type="line"/>
      <point x="880" y="600" type="line"/>
      <point x="880" y="750" type="line"/>
      <point x="550" y="750" type="line"/>
    </contour>
  </outline>
</glyph>
<glyph name="N" format="1">
  <advance width="720"/>
  <unicode hex="004E"/>
  <outline>
    <contour>
      <point x="0" y="750" type="line"/>
      <point x="0" y="600" type="line"/>
      <point x="80" y="600" type="line"/>
      <point x="80" y="150" type="line"/>
      <point x="0" y="150" type="line"/>
      <point x="0" y="0" type="line"/>
      <point x="280" y="0" type="line"/>
      <point x="280" y="150" type="line"/>
      <point x="200" y="150" type="line"/>
      <point x="200" y="450" type="line"/>
      <point x="400" y="0" type="line"/>
      <point x="640" y="0" type="line"/>
      <point x="640" y="600" type="line"/>
      <point x="720" y="600" type="line"/>
      <point x="720" y="750" type="line"/>
      <point x="440" y="750" type="line"/>
      <point x="440" y="600" type="line"/>
      <point x="520" y="600" type="line"/>
      <point x="520" y="300" type="line"/>
      <point x="320" y="750" type="line"/>
    </contour>
  </outline>
</glyph>
<glyph name="O" format="1">
  <advance width="560"/>
  <unicode hex="004F"/>
  <outline>
    <contour>
      <point x="560" y="150" type="curve"/>
      <point x="560" y="170"/>
      <point x="540" y="182"/>
      <point x="540" y="375" type="curve" smooth="yes"/>
      <point x="540" y="570"/>
      <point x="560" y="580"/>
      <point x="560" y="600" type="curve"/>
      <point x="510" y="600"/>
      <point x="410" y="700"/>
      <point x="410" y="750" type="curve"/>
      <point x="150" y="750" type="line"/>
      <point x="150" y="700"/>
      <point x="50" y="600"/>
      <point x="0" y="600" type="curve"/>
      <point x="0" y="580"/>
      <point x="20" y="570"/>
      <point x="20" y="375" type="curve"/>
      <point x="20" y="180"/>
      <point x="0" y="170"/>
      <point x="0" y="150" type="curve"/>
      <point x="50" y="150"/>
      <point x="150" y="50"/>
      <point x="150" y="0" type="curve"/>
      <point x="410" y="0" type="line"/>
      <point x="410" y="50"/>
      <point x="510" y="150"/>
    </contour>
    <contour>
      <point x="280" y="150" type="curve"/>
      <point x="250" y="150"/>
      <point x="210" y="180"/>
      <point x="210" y="375" type="curve"/>
      <point x="210" y="570"/>
      <point x="250" y="600"/>
      <point x="280" y="600" type="curve"/>
      <point x="310" y="600"/>
      <point x="350" y="570"/>
      <point x="350" y="375" type="curve"/>
      <point x="350" y="180"/>
      <point x="310" y="150"/>
    </contour>
  </outline>
</glyph>
<glyph name="P" format="1">
  <advance width="720"/>
  <unicode hex="0050"/>
  <outline>
    <contour>
      <point x="370" y="75" type="curve" smooth="yes"/>
      <point x="370" y="120"/>
      <point x="380" y="130"/>
      <point x="380" y="150" type="curve"/>
      <point x="370" y="150"/>
      <point x="360" y="140"/>
      <point x="340" y="140" type="curve"/>
      <point x="310" y="140"/>
      <point x="292" y="210"/>
      <point x="292" y="300" type="curve"/>
      <point x="310" y="300"/>
      <point x="330" y="310"/>
      <point x="390" y="310" type="curve"/>
      <point x="450" y="310"/>
      <point x="470" y="300"/>
      <point x="490" y="300" type="curve"/>
      <point x="490" y="350"/>
      <point x="590" y="450"/>
      <point x="640" y="450" type="curve"/>
      <point x="640" y="470"/>
      <point x="630" y="480"/>
      <point x="630" y="525" type="curve"/>
      <point x="630" y="570"/>
      <point x="640" y="580"/>
      <point x="640" y="600" type="curve"/>
      <point x="590" y="600"/>
      <point x="490" y="700"/>
      <point x="490" y="750" type="curve"/>
      <point x="20" y="750" type="line"/>
      <point x="20" y="730"/>
      <point x="30" y="720"/>
      <point x="30" y="675" type="curve" smooth="yes"/>
      <point x="30" y="630"/>
      <point x="20" y="620"/>
      <point x="20" y="600" type="curve"/>
      <point x="30" y="600"/>
      <point x="40" y="610"/>
      <point x="60" y="610" type="curve"/>
      <point x="90" y="610"/>
      <point x="110" y="550"/>
      <point x="110" y="375" type="curve"/>
      <point x="110" y="200"/>
      <point x="90" y="140"/>
      <point x="60" y="140" type="curve"/>
      <point x="40" y="140"/>
      <point x="30" y="150"/>
      <point x="20" y="150" type="curve"/>
      <point x="20" y="130"/>
      <point x="30" y="120"/>
      <point x="30" y="75" type="curve" smooth="yes"/>
      <point x="30" y="30"/>
      <point x="20" y="20"/>
      <point x="20" y="0" type="curve"/>
      <point x="380" y="0" type="line"/>
      <point x="380" y="20"/>
      <point x="370" y="30"/>
    </contour>
    <contour>
      <point x="280" y="440" type="line"/>
      <point x="280" y="540"/>
      <point x="305" y="600"/>
      <point x="375" y="600" type="curve" smooth="yes"/>
      <point x="425" y="600"/>
      <point x="450" y="570"/>
      <point x="450" y="535" type="curve" smooth="yes"/>
      <point x="450" y="500"/>
      <point x="425" y="440"/>
      <point x="325" y="440" type="curve"/>
    </contour>
  </outline>
</glyph>
<glyph name="Q" format="1">
  <advance width="740"/>
  <unicode hex="0051"/>
  <outline>
    <contour>
      <point x="660" y="160" type="curve"/>
      <point x="650" y="160"/>
      <point x="639" y="150"/>
      <point x="620" y="150" type="curve" smooth="yes"/>
      <point x="583" y="150"/>
      <point x="560" y="200"/>
      <point x="560" y="375" type="curve" smooth="yes"/>
      <point x="560" y="570"/>
      <point x="580" y="580"/>
      <point x="580" y="600" type="curve"/>
      <point x="520" y="600"/>
      <point x="430" y="700"/>
      <point x="430" y="750" type="curve"/>
      <point x="170" y="750" type="line"/>
      <point x="170" y="700"/>
      <point x="70" y="600"/>
      <point x="20" y="600" type="curve"/>
      <point x="20" y="580"/>
      <point x="40" y="570"/>
      <point x="40" y="375" type="curve"/>
      <point x="40" y="180"/>
      <point x="20" y="170"/>
      <point x="20" y="150" type="curve"/>
      <point x="70" y="150"/>
      <point x="170" y="50"/>
      <point x="170" y="0" type="curve"/>
      <point x="440" y="0" type="line"/>
      <point x="440" y="20"/>
      <point x="470" y="75"/>
      <point x="480" y="75" type="curve" smooth="yes"/>
      <point x="490" y="75"/>
      <point x="520" y="20"/>
      <point x="520" y="0" type="curve"/>
      <point x="660" y="0" type="line"/>
      <point x="660" y="20"/>
      <point x="650" y="32"/>
      <point x="650" y="80" type="curve" smooth="yes"/>
      <point x="650" y="130"/>
      <point x="660" y="140"/>
    </contour>
    <contour>
      <point x="300" y="140" type="curve"/>
      <point x="250" y="140"/>
      <point x="220" y="200"/>
      <point x="220" y="375" type="curve"/>
      <point x="220" y="550"/>
      <point x="250" y="610"/>
      <point x="300" y="610" type="curve"/>
      <point x="350" y="610"/>
      <point x="380" y="550"/>
      <point x="380" y="375" type="curve"/>
      <point x="380" y="200"/>
      <point x="350" y="140"/>
    </contour>
    <contour>
      <point x="270" y="200" type="curve"/>
      <point x="420" y="200"/>
      <point x="520" y="50"/>
      <point x="520" y="0" type="curve"/>
      <point x="520" y="200" type="line"/>
      <point x="510" y="200"/>
      <point x="420" y="260"/>
      <point x="320" y="260" type="curve"/>
      <point x="220" y="260"/>
      <point x="180" y="200"/>
      <point x="170" y="200" type="curve"/>
      <point x="170" y="150" type="line"/>
      <point x="180" y="150"/>
      <point x="200" y="200"/>
    </contour>
  </outline>
</glyph>
<glyph name="R" format="1">
  <advance width="680"/>
  <unicode hex="0052"/>
  <outline>
    <contour>
      <point x="0" y="600" type="line"/>
      <point x="0" y="750" type="line"/>
      <point x="470" y="750" type="line"/>
      <point x="620" y="600" type="line"/>
      <point x="620" y="450" type="line"/>
      <point x="480" y="375" type="line"/>
      <point x="620" y="300" type="line"/>
      <point x="620" y="150" type="line"/>
      <point x="680" y="150" type="line"/>
      <point x="680" y="0" type="line"/>
      <point x="500" y="0" type="line"/>
      <point x="400" y="150" type="line"/>
      <point x="400" y="300" type="line"/>
      <point x="280" y="300" type="line"/>
      <point x="280" y="150" type="line"/>
      <point x="360" y="150" type="line"/>
      <point x="360" y="0" type="line"/>
      <point x="0" y="0" type="line"/>
      <point x="0" y="150" type="line"/>
      <point x="80" y="150" type="line"/>
      <point x="80" y="600" type="line"/>
    </contour>
    <contour>
      <point x="280" y="600" type="line"/>
      <point x="280" y="450" type="line"/>
      <point x="360" y="450" type="line"/>
      <point x="390" y="450"/>
      <point x="430" y="475"/>
      <point x="430" y="525" type="curve"/>
      <point x="430" y="575"/>
      <point x="390" y="600"/>
      <point x="360" y="600" type="curve"/>
    </contour>
  </outline>
</glyph>
<glyph name="S" format="1">
  <advance width="560"/>
  <unicode hex="0053"/>
  <outline>
    <contour>
      <point x="0" y="600" type="line"/>
      <point x="150" y="750" type="line"/>
      <point x="320" y="750" type="line"/>
      <point x="370" y="680" type="line"/>
      <point x="420" y="750" type="line"/>
      <point x="530" y="750" type="line"/>
      <point x="530" y="530" type="line"/>
      <point x="370" y="530" type="line"/>
      <point x="370" y="590" type="line"/>
      <point x="200" y="590" type="line"/>
      <point x="200" y="480" type="line"/>
      <point x="410" y="480" type="line"/>
      <point x="560" y="350" type="line"/>
      <point x="560" y="150" type="line"/>
      <point x="410" y="0" type="line"/>
      <point x="210" y="0" type="line"/>
      <point x="160" y="70" type="line"/>
      <point x="110" y="0" type="line"/>
      <point x="0" y="0" type="line"/>
      <point x="0" y="220" type="line"/>
      <point x="160" y="220" type="line"/>
      <point x="160" y="160" type="line"/>
      <point x="360" y="160" type="line"/>
      <point x="360" y="270" type="line"/>
      <point x="150" y="270" type="line"/>
      <point x="0" y="400" type="line"/>
    </contour>
  </outline>
</glyph>
<glyph name="T" format="1">
  <advance width="680"/>
  <unicode hex="0054"/>
  <outline>
    <contour>
      <point x="160" y="0" type="line"/>
      <point x="160" y="150" type="line"/>
      <point x="240" y="150" type="line"/>
      <point x="240" y="600" type="line"/>
      <point x="160" y="600" type="line"/>
      <point x="160" y="450" type="line"/>
      <point x="0" y="450" type="line"/>
      <point x="0" y="750" type="line"/>
      <point x="680" y="750" type="line"/>
      <point x="680" y="450" type="line"/>
      <point x="520" y="450" type="line"/>
      <point x="520" y="600" type="line"/>
      <point x="440" y="600" type="line"/>
      <point x="440" y="150" type="line"/>
      <point x="520" y="150" type="line"/>
      <point x="520" y="0" type="line"/>
    </contour>
  </outline>
</glyph>
<glyph name="U" format="1">
  <advance width="620"/>
  <unicode hex="0055"/>
  <note>
    - The inside curve seems slightly off?
    - Should the space between the two serifs be 1 width or less?
  </note>
  <outline>
    <contour>
      <point x="0" y="750" type="line"/>
      <point x="0" y="730"/>
      <point x="10" y="720"/>
      <point x="10" y="675" type="curve"/>
      <point x="10" y="630"/>
      <point x="0" y="620"/>
      <point x="0" y="600" type="curve"/>
      <point x="10" y="600"/>
      <point x="20" y="610"/>
      <point x="40" y="610" type="curve"/>
      <point x="70" y="610"/>
      <point x="80" y="550"/>
      <point x="80" y="375" type="curve" smooth="yes"/>
      <point x="80" y="180"/>
      <point x="70" y="170"/>
      <point x="70" y="150" type="curve"/>
      <point x="120" y="150"/>
      <point x="220" y="50"/>
      <point x="220" y="0" type="curve"/>
      <point x="430" y="0" type="line"/>
      <point x="430" y="50"/>
      <point x="513" y="150"/>
      <point x="550" y="150" type="curve"/>
      <point x="550" y="170"/>
      <point x="540" y="180"/>
      <point x="540" y="375" type="curve"/>
      <point x="540" y="550"/>
      <point x="550" y="610"/>
      <point x="580" y="610" type="curve" smooth="yes"/>
      <point x="600" y="610"/>
      <point x="611" y="600"/>
      <point x="620" y="600" type="curve"/>
      <point x="620" y="620"/>
      <point x="610" y="630"/>
      <point x="610" y="675" type="curve"/>
      <point x="610" y="720"/>
      <point x="620" y="730"/>
      <point x="620" y="750" type="curve"/>
      <point x="350" y="750" type="line"/>
      <point x="350" y="730"/>
      <point x="360" y="720"/>
      <point x="360" y="675" type="curve"/>
      <point x="360" y="630"/>
      <point x="350" y="620"/>
      <point x="350" y="600" type="curve"/>
      <point x="360" y="600"/>
      <point x="360" y="610"/>
      <point x="370" y="610" type="curve"/>
      <point x="400" y="610"/>
      <point x="410" y="550"/>
      <point x="410" y="375" type="curve" smooth="yes"/>
      <point x="410" y="180"/>
      <point x="370" y="140"/>
      <point x="340" y="141" type="curve"/>
      <point x="310" y="140"/>
      <point x="270" y="180"/>
      <point x="270" y="375" type="curve" smooth="yes"/>
      <point x="270" y="550"/>
      <point x="280" y="610"/>
      <point x="310" y="610" type="curve"/>
      <point x="320" y="610"/>
      <point x="320" y="600"/>
      <point x="330" y="600" type="curve"/>
      <point x="330" y="620"/>
      <point x="320" y="630"/>
      <point x="320" y="675" type="curve"/>
      <point x="320" y="720"/>
      <point x="330" y="730"/>
      <point x="330" y="750" type="curve"/>
    </contour>
  </outline>
</glyph>
<glyph name="V" format="1">
  <advance width="620"/>
  <unicode hex="0056"/>
  <outline>
    <contour>
      <point x="0" y="750" type="line"/>
      <point x="0" y="730"/>
      <point x="10" y="720"/>
      <point x="10" y="675" type="curve"/>
      <point x="10" y="630"/>
      <point x="0" y="620"/>
      <point x="0" y="600" type="curve"/>
      <point x="10" y="600"/>
      <point x="20" y="610"/>
      <point x="40" y="610" type="curve"/>
      <point x="120" y="610"/>
      <point x="220" y="50"/>
      <point x="220" y="0" type="curve"/>
      <point x="430" y="0" type="line"/>
      <point x="430" y="50"/>
      <point x="500" y="610"/>
      <point x="580" y="610" type="curve" smooth="yes"/>
      <point x="600" y="610"/>
      <point x="611" y="600"/>
      <point x="620" y="600" type="curve"/>
      <point x="620" y="620"/>
      <point x="610" y="630"/>
      <point x="610" y="675" type="curve"/>
      <point x="610" y="720"/>
      <point x="620" y="730"/>
      <point x="620" y="750" type="curve"/>
      <point x="350" y="750" type="line"/>
      <point x="350" y="730"/>
      <point x="360" y="720"/>
      <point x="360" y="675" type="curve"/>
      <point x="360" y="630"/>
      <point x="350" y="620"/>
      <point x="350" y="600" type="curve"/>
      <point x="360" y="600"/>
      <point x="360" y="610"/>
      <point x="370" y="610" type="curve"/>
      <point x="380" y="610"/>
      <point x="395" y="600"/>
      <point x="395" y="580" type="curve" smooth="yes"/>
      <point x="395" y="560"/>
      <point x="356" y="330"/>
      <point x="345" y="330" type="curve" smooth="yes"/>
      <point x="335" y="330"/>
      <point x="285" y="560"/>
      <point x="285" y="580" type="curve" smooth="yes"/>
      <point x="285" y="600"/>
      <point x="300" y="610"/>
      <point x="310" y="610" type="curve"/>
      <point x="320" y="610"/>
      <point x="320" y="600"/>
      <point x="330" y="600" type="curve"/>
      <point x="330" y="620"/>
      <point x="320" y="630"/>
      <point x="320" y="675" type="curve"/>
      <point x="320" y="720"/>
      <point x="330" y="730"/>
      <point x="330" y="750" type="curve"/>
    </contour>
  </outline>
</glyph>
<glyph name="X" format="1">
  <advance width="680"/>
  <unicode hex="0058"/>
  <outline>
    <contour>
      <point x="0" y="750" type="line"/>
      <point x="360" y="750" type="line"/>
      <point x="360" y="600" type="line"/>
      <point x="0" y="600" type="line"/>
    </contour>
    <contour>
      <point x="0" y="150" type="line"/>
      <point x="0" y="0" type="line"/>
      <point x="280" y="0" type="line"/>
      <point x="280" y="150" type="line"/>
    </contour>
    <contour>
      <point x="400" y="750" type="line"/>
      <point x="400" y="600" type="line"/>
      <point x="680" y="600" type="line"/>
      <point x="680" y="750" type="line"/>
    </contour>
    <contour>
      <point x="320" y="150" type="line"/>
      <point x="680" y="150" type="line"/>
      <point x="680" y="0" type="line"/>
      <point x="320" y="0" type="line"/>
    </contour>
    <contour>
      <point x="480" y="600" type="line"/>
      <point x="600" y="600" type="line"/>
      <point x="408" y="350" type="line"/>
      <point x="288" y="350" type="line"/>
    </contour>
    <contour>
      <point x="80" y="600" type="line"/>
      <point x="280" y="600" type="line"/>
      <point x="604" y="150" type="line"/>
      <point x="400" y="150" type="line"/>
    </contour>
    <contour>
      <point x="260" y="400" type="line"/>
      <point x="380" y="400" type="line"/>
      <point x="200" y="150" type="line"/>
      <point x="80" y="150" type="line"/>
    </contour>
  </outline>
</glyph>
<glyph name="Y" format="1">
  <advance width="680"/>
  <unicode hex="0059"/>
  <outline>
    <contour>
      <point x="230" y="150" type="line"/>
      <point x="150" y="150" type="line"/>
      <point x="150" y="0" type="line"/>
      <point x="510" y="0" type="line"/>
      <point x="510" y="150" type="line"/>
      <point x="430" y="150" type="line"/>
      <point x="430" y="310" type="line"/>
      <point x="600" y="600" type="line"/>
      <point x="680" y="600" type="line"/>
      <point x="680" y="750" type="line"/>
      <point x="400" y="750" type="line"/>
      <point x="400" y="600" type="line"/>
      <point x="480" y="600" type="line"/>
      <point x="380" y="430" type="line"/>
      <point x="280" y="600" type="line"/>
      <point x="360" y="600" type="line"/>
      <point x="360" y="750" type="line"/>
      <point x="0" y="750" type="line"/>
      <point x="0" y="600" type="line"/>
      <point x="80" y="600" type="line"/>
      <point x="230" y="340" type="line"/>
    </contour>
  </outline>
</glyph>
<glyph name="bracketleft" format="1">
  <advance width="400"/>
  <unicode hex="005B"/>
  <outline>
    <contour>
      <point x="20" y="-50" type="curve"/>
      <point x="320" y="-50" type="line"/>
      <point x="320" y="-30"/>
      <point x="310" y="-20"/>
      <point x="310" y="25" type="curve" smooth="yes"/>
      <point x="310" y="70"/>
      <point x="320" y="80"/>
      <point x="320" y="100" type="curve"/>
      <point x="310" y="100"/>
      <point x="300" y="90"/>
      <point x="270" y="90" type="curve"/>
      <point x="220" y="90"/>
      <point x="200" y="270"/>
      <point x="200" y="375" type="curve"/>
      <point x="200" y="480"/>
      <point x="220" y="660"/>
      <point x="270" y="660" type="curve"/>
      <point x="300" y="660"/>
      <point x="310" y="650"/>
      <point x="320" y="650" type="curve"/>
      <point x="320" y="670"/>
      <point x="310" y="680"/>
      <point x="310" y="725" type="curve" smooth="yes"/>
      <point x="310" y="770"/>
      <point x="320" y="780"/>
      <point x="320" y="800" type="curve"/>
      <point x="20" y="800" type="line"/>
      <point x="20" y="750"/>
      <point x="40" y="740"/>
      <point x="40" y="375" type="curve"/>
      <point x="40" y="10"/>
      <point x="20" y="0"/>
    </contour>
  </outline>
</glyph>
<glyph name="underscore" format="1">
  <advance width="600"/>
  <unicode hex="005F"/>
  <outline>
    <contour>
      <point x="520" y="0" type="curve"/>
      <point x="500" y="0"/>
      <point x="490" y="-10"/>
      <point x="270" y="-10" type="curve"/>
      <point x="50" y="-10"/>
      <point x="40" y="0"/>
      <point x="20" y="0" type="curve"/>
      <point x="20" y="-20"/>
      <point x="30" y="-30"/>
      <point x="30" y="-75" type="curve"/>
      <point x="30" y="-120"/>
      <point x="20" y="-130"/>
      <point x="20" y="-150" type="curve"/>
      <point x="40" y="-150"/>
      <point x="50" y="-140"/>
      <point x="270" y="-140" type="curve"/>
      <point x="490" y="-140"/>
      <point x="500" y="-150"/>
      <point x="520" y="-150" type="curve"/>
      <point x="520" y="-130"/>
      <point x="510" y="-120"/>
      <point x="510" y="-75" type="curve"/>
      <point x="510" y="-30"/>
      <point x="520" y="-20"/>
    </contour>
  </outline>
</glyph>
<glyph name="d" format="1">
  <advance width="750"/>
  <unicode hex="0064"/>
  <outline>
    <contour>
      <point x="670" y="0" type="line"/>
      <point x="670" y="20"/>
      <point x="660" y="30"/>
      <point x="660" y="75" type="curve"/>
      <point x="660" y="120"/>
      <point x="670" y="130"/>
      <point x="670" y="150" type="curve"/>
      <point x="660" y="150"/>
      <point x="650" y="140"/>
      <point x="620" y="140" type="curve" smooth="yes"/>
      <point x="570" y="140"/>
      <point x="550" y="250"/>
      <point x="550" y="450" type="curve"/>
      <point x="550" y="650"/>
      <point x="570" y="780"/>
      <point x="570" y="800" type="curve"/>
      <point x="270" y="800" type="line"/>
      <point x="270" y="780"/>
      <point x="280" y="770"/>
      <point x="280" y="725" type="curve" smooth="yes"/>
      <point x="280" y="680"/>
      <point x="270" y="670"/>
      <point x="270" y="650" type="curve"/>
      <point x="280" y="650"/>
      <point x="290" y="660"/>
      <point x="320" y="660" type="curve" smooth="yes"/>
      <point x="370" y="660"/>
      <point x="380" y="600"/>
      <point x="380" y="540" type="curve"/>
      <point x="360" y="540"/>
      <point x="320" y="580"/>
      <point x="320" y="600" type="curve"/>
      <point x="170" y="600" type="line"/>
      <point x="170" y="550"/>
      <point x="70" y="450"/>
      <point x="20" y="450" type="curve"/>
      <point x="20" y="430"/>
      <point x="40" y="420"/>
      <point x="40" y="300" type="curve"/>
      <point x="40" y="180"/>
      <point x="20" y="170"/>
      <point x="20" y="150" type="curve"/>
      <point x="70" y="150"/>
      <point x="170" y="50"/>
      <point x="170" y="0" type="curve"/>
      <point x="340" y="0" type="line"/>
      <point x="340" y="20"/>
      <point x="370" y="60"/>
      <point x="380" y="60" type="curve"/>
      <point x="390" y="60"/>
      <point x="420" y="20"/>
      <point x="420" y="0" type="curve"/>
    </contour>
    <contour>
      <point x="295" y="120" type="curve"/>
      <point x="240" y="120"/>
      <point x="210" y="160"/>
      <point x="210" y="300" type="curve"/>
      <point x="210" y="440"/>
      <point x="240" y="480"/>
      <point x="295" y="480" type="curve"/>
      <point x="350" y="480"/>
      <point x="380" y="440"/>
      <point x="380" y="300" type="curve"/>
      <point x="380" y="160"/>
      <point x="350" y="120"/>
    </contour>
  </outline>
</glyph>
<glyph name="e" format="1">
  <advance width="600"/>
  <unicode hex="0065"/>
  <outline>
    <contour>
      <point x="520" y="100" type="curve"/>
      <point x="520" y="120"/>
      <point x="510" y="130"/>
      <point x="510" y="175" type="curve" smooth="yes"/>
      <point x="510" y="220"/>
      <point x="520" y="230"/>
      <point x="520" y="250" type="curve"/>
      <point x="500" y="250"/>
      <point x="490" y="240"/>
      <point x="450" y="240" type="curve" smooth="yes"/>
      <point x="400" y="240"/>
      <point x="390" y="250"/>
      <point x="370" y="250" type="curve"/>
      <point x="370" y="230"/>
      <point x="380" y="220"/>
      <point x="380" y="190" type="curve" smooth="yes"/>
      <point x="380" y="150"/>
      <point x="350" y="120"/>
      <point x="315" y="120" type="curve"/>
      <point x="250" y="120"/>
      <point x="210" y="200"/>
      <point x="210" y="300" type="curve"/>
      <point x="230" y="300"/>
      <point x="240" y="310"/>
      <point x="370" y="310" type="curve" smooth="yes"/>
      <point x="490" y="310"/>
      <point x="500" y="300"/>
      <point x="520" y="300" type="curve"/>
      <point x="520" y="319"/>
      <point x="510" y="330"/>
      <point x="510" y="400" type="curve" smooth="yes"/>
      <point x="510" y="470"/>
      <point x="520" y="480"/>
      <point x="520" y="500" type="curve"/>
      <point x="470" y="500"/>
      <point x="420" y="550"/>
      <point x="420" y="600" type="curve"/>
      <point x="170" y="600" type="line"/>
      <point x="170" y="550"/>
      <point x="70" y="450"/>
      <point x="20" y="450" type="curve"/>
      <point x="20" y="430"/>
      <point x="40" y="420"/>
      <point x="40" y="300" type="curve"/>
      <point x="40" y="180"/>
      <point x="20" y="170"/>
      <point x="20" y="150" type="curve"/>
      <point x="70" y="150"/>
      <point x="170" y="50"/>
      <point x="170" y="0" type="curve"/>
      <point x="420" y="0" type="line"/>
      <point x="420" y="50"/>
      <point x="470" y="100"/>
    </contour>
    <contour>
      <point x="216" y="350" type="curve"/>
      <point x="216" y="400"/>
      <point x="250" y="480"/>
      <point x="315" y="480" type="curve"/>
      <point x="350" y="480"/>
      <point x="380" y="450"/>
      <point x="380" y="410" type="curve" smooth="yes"/>
      <point x="380" y="380"/>
      <point x="370" y="370"/>
      <point x="370" y="360" type="curve"/>
      <point x="244" y="360"/>
      <point x="236" y="350"/>
    </contour>
  </outline>
</glyph>
<glyph name="n" format="1">
  <advance width="850"/>
  <unicode hex="006E"/>
  <outline>
    <contour>
      <point x="20" y="0" type="curve"/>
      <point x="370" y="0" type="line"/>
      <point x="370" y="20"/>
      <point x="360" y="30"/>
      <point x="360" y="75" type="curve" smooth="yes"/>
      <point x="360" y="120"/>
      <point x="370" y="131"/>
      <point x="370" y="150" type="curve"/>
      <point x="360" y="150"/>
      <point x="360" y="140"/>
      <point x="350" y="140" type="curve" smooth="yes"/>
      <point x="330" y="140"/>
      <point x="310" y="170"/>
      <point x="310" y="300" type="curve" smooth="yes"/>
      <point x="310" y="430"/>
      <point x="330" y="480"/>
      <point x="395" y="480" type="curve"/>
      <point x="460" y="480"/>
      <point x="480" y="430"/>
      <point x="480" y="300" type="curve" smooth="yes"/>
      <point x="480" y="170"/>
      <point x="460" y="140"/>
      <point x="440" y="140" type="curve" smooth="yes"/>
      <point x="430" y="140"/>
      <point x="430" y="150"/>
      <point x="420" y="150" type="curve"/>
      <point x="420" y="130"/>
      <point x="430" y="120"/>
      <point x="430" y="75" type="curve" smooth="yes"/>
      <point x="430" y="30"/>
      <point x="420" y="20"/>
      <point x="420" y="0" type="curve"/>
      <point x="770" y="0" type="line"/>
      <point x="770" y="20"/>
      <point x="760" y="30"/>
      <point x="760" y="75" type="curve" smooth="yes"/>
      <point x="760" y="120"/>
      <point x="770" y="130"/>
      <point x="770" y="150" type="curve"/>
      <point x="760" y="150"/>
      <point x="750" y="140"/>
      <point x="720" y="140" type="curve" smooth="yes"/>
      <point x="670" y="140"/>
      <point x="660" y="200"/>
      <point x="660" y="300" type="curve"/>
      <point x="660" y="420"/>
      <point x="670" y="430"/>
      <point x="670" y="450" type="curve"/>
      <point x="620" y="450"/>
      <point x="520" y="550"/>
      <point x="520" y="600" type="curve"/>
      <point x="350" y="600" type="line"/>
      <point x="350" y="580"/>
      <point x="320" y="540"/>
      <point x="310" y="540" type="curve"/>
      <point x="300" y="540"/>
      <point x="270" y="580"/>
      <point x="270" y="600" type="curve"/>
      <point x="20" y="600" type="line"/>
      <point x="20" y="580"/>
      <point x="30" y="570"/>
      <point x="30" y="525" type="curve"/>
      <point x="30" y="480"/>
      <point x="20" y="470"/>
      <point x="20" y="450" type="curve"/>
      <point x="30" y="450"/>
      <point x="40" y="460"/>
      <point x="70" y="460" type="curve"/>
      <point x="120" y="460"/>
      <point x="140" y="400"/>
      <point x="140" y="300" type="curve"/>
      <point x="140" y="200"/>
      <point x="120" y="140"/>
      <point x="70" y="140" type="curve" smooth="yes"/>
      <point x="40" y="140"/>
      <point x="30" y="150"/>
      <point x="20" y="150" type="curve"/>
      <point x="20" y="130"/>
      <point x="30" y="120"/>
      <point x="30" y="75" type="curve" smooth="yes"/>
      <point x="30" y="30"/>
      <point x="20" y="20"/>
    </contour>
  </outline>
</glyph>
<glyph name="o" format="1">
  <advance width="650"/>
  <unicode hex="006F"/>
  <outline>
    <contour>
      <point x="295" y="120" type="curve"/>
      <point x="240" y="120"/>
      <point x="210" y="160"/>
      <point x="210" y="300" type="curve"/>
      <point x="210" y="440"/>
      <point x="240" y="480"/>
      <point x="295" y="480" type="curve"/>
      <point x="350" y="480"/>
      <point x="380" y="440"/>
      <point x="380" y="300" type="curve"/>
      <point x="380" y="160"/>
      <point x="350" y="120"/>
    </contour>
    <contour>
      <point x="420" y="0" type="line"/>
      <point x="420" y="50"/>
      <point x="520" y="150"/>
      <point x="570" y="150" type="curve"/>
      <point x="570" y="170"/>
      <point x="550" y="180"/>
      <point x="550" y="300" type="curve"/>
      <point x="550" y="420"/>
      <point x="570" y="430"/>
      <point x="570" y="450" type="curve"/>
      <point x="520" y="450"/>
      <point x="420" y="550"/>
      <point x="420" y="600" type="curve"/>
      <point x="170" y="600" type="line"/>
      <point x="170" y="550"/>
      <point x="70" y="450"/>
      <point x="20" y="450" type="curve"/>
      <point x="20" y="430"/>
      <point x="40" y="420"/>
      <point x="40" y="300" type="curve"/>
      <point x="40" y="180"/>
      <point x="20" y="170"/>
      <point x="20" y="150" type="curve"/>
      <point x="70" y="150"/>
      <point x="170" y="50"/>
      <point x="170" y="0" type="curve"/>
    </contour>
  </outline>
</glyph>
<glyph name="p" format="1">
  <advance width="750"/>
  <unicode hex="0070"/>
  <outline>
    <contour>
      <point x="20" y="600" type="line"/>
      <point x="20" y="580"/>
      <point x="30" y="570"/>
      <point x="30" y="525" type="curve" smooth="yes"/>
      <point x="30" y="480"/>
      <point x="20" y="470"/>
      <point x="20" y="450" type="curve"/>
      <point x="30" y="450"/>
      <point x="40" y="460"/>
      <point x="70" y="460" type="curve" smooth="yes"/>
      <point x="120" y="460"/>
      <point x="140" y="350"/>
      <point x="140" y="225" type="curve"/>
      <point x="140" y="100"/>
      <point x="120" y="-60"/>
      <point x="70" y="-60" type="curve"/>
      <point x="40" y="-60"/>
      <point x="30" y="-50"/>
      <point x="20" y="-50" type="curve"/>
      <point x="20" y="-70"/>
      <point x="30" y="-80"/>
      <point x="30" y="-125" type="curve"/>
      <point x="30" y="-170"/>
      <point x="20" y="-180"/>
      <point x="20" y="-200" type="curve"/>
      <point x="420" y="-200" type="line"/>
      <point x="420" y="-180"/>
      <point x="410" y="-170"/>
      <point x="410" y="-125" type="curve" smooth="yes"/>
      <point x="410" y="-80"/>
      <point x="420" y="-70"/>
      <point x="420" y="-50" type="curve"/>
      <point x="410" y="-50"/>
      <point x="400" y="-60"/>
      <point x="370" y="-60" type="curve"/>
      <point x="320" y="-60"/>
      <point x="310" y="0"/>
      <point x="310" y="60" type="curve"/>
      <point x="330" y="60"/>
      <point x="370" y="20"/>
      <point x="370" y="0" type="curve"/>
      <point x="520" y="0" type="line"/>
      <point x="520" y="50"/>
      <point x="620" y="150"/>
      <point x="670" y="150" type="curve"/>
      <point x="670" y="170"/>
      <point x="650" y="180"/>
      <point x="650" y="300" type="curve"/>
      <point x="650" y="420"/>
      <point x="670" y="430"/>
      <point x="670" y="450" type="curve"/>
      <point x="620" y="450"/>
      <point x="520" y="550"/>
      <point x="520" y="600" type="curve"/>
      <point x="350" y="600" type="line"/>
      <point x="350" y="580"/>
      <point x="320" y="540"/>
      <point x="310" y="540" type="curve"/>
      <point x="300" y="540"/>
      <point x="270" y="580"/>
      <point x="270" y="600" type="curve"/>
    </contour>
    <contour>
      <point x="395" y="480" type="curve"/>
      <point x="450" y="480"/>
      <point x="480" y="441"/>
      <point x="480" y="301" type="curve"/>
      <point x="480" y="161"/>
      <point x="450" y="120"/>
      <point x="395" y="120" type="curve"/>
      <point x="340" y="120"/>
      <point x="310" y="161"/>
      <point x="310" y="301" type="curve"/>
      <point x="310" y="441"/>
      <point x="340" y="480"/>
    </contour>
  </outline>
</glyph>
<glyph name="t" format="1">
  <advance width="500"/>
  <unicode hex="0074"/>
  <outline>
    <contour>
      <point x="310" y="300" type="curve"/>
      <point x="310" y="400"/>
      <point x="320" y="460"/>
      <point x="370" y="460" type="curve"/>
      <point x="400" y="460"/>
      <point x="410" y="450"/>
      <point x="420" y="450" type="curve"/>
      <point x="420" y="470"/>
      <point x="410" y="480"/>
      <point x="410" y="525" type="curve" smooth="yes"/>
      <point x="410" y="570"/>
      <point x="420" y="580"/>
      <point x="420" y="600" type="curve"/>
      <point x="410" y="600"/>
      <point x="400" y="590"/>
      <point x="370" y="590" type="curve" smooth="yes"/>
      <point x="316" y="590"/>
      <point x="310" y="600"/>
      <point x="310" y="700" type="curve"/>
      <point x="310" y="750"/>
      <point x="320" y="780"/>
      <point x="320" y="800" type="curve"/>
      <point x="220" y="800" type="line"/>
      <point x="220" y="750"/>
      <point x="170" y="700"/>
      <point x="120" y="700" type="curve"/>
      <point x="120" y="690"/>
      <point x="130" y="680"/>
      <point x="130" y="650" type="curve" smooth="yes"/>
      <point x="130" y="600"/>
      <point x="120" y="590"/>
      <point x="70" y="590" type="curve"/>
      <point x="40" y="590"/>
      <point x="30" y="600"/>
      <point x="20" y="600" type="curve"/>
      <point x="20" y="580"/>
      <point x="30" y="570"/>
      <point x="30" y="525" type="curve" smooth="yes"/>
      <point x="30" y="480"/>
      <point x="20" y="470"/>
      <point x="20" y="450" type="curve"/>
      <point x="30" y="450"/>
      <point x="40" y="460"/>
      <point x="70" y="460" type="curve" smooth="yes"/>
      <point x="120" y="460"/>
      <point x="130" y="400"/>
      <point x="130" y="300" type="curve"/>
      <point x="130" y="200"/>
      <point x="120" y="170"/>
      <point x="120" y="150" type="curve"/>
      <point x="170" y="150"/>
      <point x="220" y="50"/>
      <point x="220" y="0" type="curve"/>
      <point x="420" y="0" type="line"/>
      <point x="420" y="20"/>
      <point x="410" y="30"/>
      <point x="410" y="75" type="curve" smooth="yes"/>
      <point x="410" y="120"/>
      <point x="420" y="130"/>
      <point x="420" y="150" type="curve"/>
      <point x="410" y="150"/>
      <point x="400" y="140"/>
      <point x="370" y="140" type="curve"/>
      <point x="320" y="140"/>
      <point x="310" y="200"/>
    </contour>
  </outline>
</glyph>
<glyph name="v" format="1">
  <advance width="800"/>
  <unicode hex="0076"/>
  <outline>
    <contour>
      <point x="470" y="0" type="line"/>
      <point x="470" y="50"/>
      <point x="570" y="460"/>
      <point x="670" y="460" type="curve"/>
      <point x="700" y="460"/>
      <point x="710" y="450"/>
      <point x="720" y="450" type="curve"/>
      <point x="720" y="470"/>
      <point x="710" y="480"/>
      <point x="710" y="525" type="curve"/>
      <point x="710" y="570"/>
      <point x="720" y="580"/>
      <point x="720" y="600" type="curve"/>
      <point x="420" y="600" type="line"/>
      <point x="420" y="580"/>
      <point x="430" y="570"/>
      <point x="430" y="525" type="curve"/>
      <point x="430" y="480"/>
      <point x="420" y="470"/>
      <point x="420" y="450" type="curve"/>
      <point x="430" y="450"/>
      <point x="440" y="460"/>
      <point x="450" y="460" type="curve"/>
      <point x="460" y="460"/>
      <point x="470" y="450"/>
      <point x="470" y="440" type="curve" smooth="yes"/>
      <point x="470" y="350"/>
      <point x="405" y="215"/>
      <point x="395" y="215" type="curve"/>
      <point x="386" y="215"/>
      <point x="320" y="350"/>
      <point x="320" y="440" type="curve" smooth="yes"/>
      <point x="320" y="450"/>
      <point x="330" y="460"/>
      <point x="340" y="460" type="curve"/>
      <point x="350" y="460"/>
      <point x="360" y="450"/>
      <point x="370" y="450" type="curve"/>
      <point x="370" y="470"/>
      <point x="360" y="480"/>
      <point x="360" y="525" type="curve"/>
      <point x="360" y="570"/>
      <point x="370" y="580"/>
      <point x="370" y="600" type="curve"/>
      <point x="20" y="600" type="line"/>
      <point x="20" y="580"/>
      <point x="30" y="570"/>
      <point x="30" y="525" type="curve"/>
      <point x="30" y="480"/>
      <point x="20" y="470"/>
      <point x="20" y="450" type="curve"/>
      <point x="30" y="450"/>
      <point x="40" y="460"/>
      <point x="70" y="460" type="curve"/>
      <point x="170" y="460"/>
      <point x="270" y="51"/>
      <point x="270" y="0" type="curve"/>
    </contour>
  </outline>
</glyph>
<glyph name="bar" format="1">
  <advance width="250"/>
  <unicode hex="007C"/>
  <outline>
    <contour>
      <point x="20" y="-150" type="line"/>
      <point x="20" y="-130"/>
      <point x="40" y="-100"/>
      <point x="40" y="325" type="curve"/>
      <point x="40" y="750"/>
      <point x="20" y="780"/>
      <point x="20" y="800" type="curve"/>
      <point x="170" y="800" type="line"/>
      <point x="170" y="780"/>
      <point x="150" y="750"/>
      <point x="150" y="325" type="curve"/>
      <point x="150" y="-99"/>
      <point x="170" y="-130"/>
      <point x="170" y="-150" type="curve"/>
    </contour>
  </outline>
</glyph>
<glyph name="braceright" format="1">
  <advance width="420"/>
  <unicode hex="007D"/>
  <outline>
    <contour>
      <point x="320" y="100" type="curve"/>
      <point x="320" y="120"/>
      <point x="290" y="130"/>
      <point x="290" y="300" type="curve" smooth="yes"/>
      <point x="290" y="350"/>
      <point x="340" y="370"/>
      <point x="340" y="375" type="curve"/>
      <point x="340" y="380"/>
      <point x="290" y="400"/>
      <point x="290" y="450" type="curve" smooth="yes"/>
      <point x="290" y="620"/>
      <point x="320" y="630"/>
      <point x="320" y="650" type="curve"/>
      <point x="270" y="650"/>
      <point x="170" y="750"/>
      <point x="170" y="800" type="curve"/>
      <point x="20" y="800" type="line"/>
      <point x="20" y="780"/>
      <point x="30" y="770"/>
      <point x="30" y="725" type="curve" smooth="yes"/>
      <point x="30" y="680"/>
      <point x="20" y="670"/>
      <point x="20" y="650" type="curve"/>
      <point x="30" y="650"/>
      <point x="40" y="660"/>
      <point x="70" y="660" type="curve"/>
      <point x="120" y="660"/>
      <point x="140" y="480"/>
      <point x="140" y="375" type="curve"/>
      <point x="140" y="270"/>
      <point x="120" y="90"/>
      <point x="70" y="90" type="curve"/>
      <point x="40" y="90"/>
      <point x="30" y="100"/>
      <point x="20" y="100" type="curve"/>
      <point x="20" y="80"/>
      <point x="30" y="70"/>
      <point x="30" y="25" type="curve" smooth="yes"/>
      <point x="30" y="-20"/>
      <point x="20" y="-30"/>
      <point x="20" y="-50" type="curve"/>
      <point x="170" y="-50" type="line"/>
      <point x="170" y="0"/>
      <point x="270" y="100"/>
    </contour>
  </outline>
</glyph>
<glyph name="asciitilde" format="1">
  <advance width="650"/>
  <unicode hex="007E"/>
  <outline>
    <contour>
      <point x="20" y="250" type="curve"/>
      <point x="170" y="250" type="line"/>
      <point x="170" y="270"/>
      <point x="160" y="280"/>
      <point x="160" y="300" type="curve"/>
      <point x="160" y="320"/>
      <point x="179" y="340"/>
      <point x="220" y="340" type="curve"/>
      <point x="270" y="340"/>
      <point x="450" y="250"/>
      <point x="470" y="250" type="curve"/>
      <point x="470" y="280"/>
      <point x="540" y="350"/>
      <point x="570" y="350" type="curve"/>
      <point x="570" y="370"/>
      <point x="560" y="380"/>
      <point x="560" y="425" type="curve"/>
      <point x="560" y="470"/>
      <point x="570" y="480"/>
      <point x="570" y="500" type="curve"/>
      <point x="420" y="500" type="line"/>
      <point x="420" y="480"/>
      <point x="430" y="470"/>
      <point x="430" y="450" type="curve"/>
      <point x="430" y="430"/>
      <point x="410" y="410"/>
      <point x="370" y="410" type="curve"/>
      <point x="320" y="410"/>
      <point x="140" y="500"/>
      <point x="120" y="500" type="curve"/>
      <point x="120" y="470"/>
      <point x="50" y="400"/>
      <point x="20" y="400" type="curve"/>
      <point x="20" y="380"/>
      <point x="30" y="370"/>
      <point x="30" y="325" type="curve"/>
      <point x="30" y="280"/>
      <point x="20" y="270"/>
    </contour>
  </outline>
</glyph>
<glyph name="cent" format="1">
  <advance width="600"/>
  <unicode hex="00A2"/>
  <outline>
    <contour>
      <point x="270" y="700" type="line"/>
      <point x="270" y="0" type="line" smooth="yes"/>
      <point x="320" y="0" type="line" smooth="yes"/>
      <point x="320" y="700" type="line"/>
    </contour>
    <component base="c" yOffset="50"/>
  </outline>
</glyph>
<glyph name="brokenbar" format="1">
  <advance width="250"/>
  <unicode hex="00A6"/>
  <outline>
    <contour>
      <point x="20" y="400" type="line"/>
      <point x="20" y="420"/>
      <point x="35" y="450"/>
      <point x="35" y="600" type="curve"/>
      <point x="35" y="750"/>
      <point x="20" y="780"/>
      <point x="20" y="800" type="curve"/>
      <point x="170" y="800" type="line"/>
      <point x="170" y="780"/>
      <point x="155" y="750"/>
      <point x="155" y="600" type="curve"/>
      <point x="155" y="450"/>
      <point x="170" y="420"/>
      <point x="170" y="400" type="curve"/>
    </contour>
    <contour>
      <point x="20" y="-150" type="line"/>
      <point x="20" y="-130"/>
      <point x="35" y="-100"/>
      <point x="35" y="50" type="curve"/>
      <point x="35" y="200"/>
      <point x="20" y="230"/>
      <point x="20" y="250" type="curve"/>
      <point x="170" y="250" type="line"/>
      <point x="170" y="230"/>
      <point x="155" y="200"/>
      <point x="155" y="50" type="curve"/>
      <point x="155" y="-100"/>
      <point x="170" y="-130"/>
      <point x="170" y="-150" type="curve"/>
    </contour>
  </outline>
</glyph>
<glyph name="copyright" format="1">
  <advance width="700"/>
  <unicode hex="00A9"/>
  <outline>
    <contour>
      <point x="505" y="80"/>
      <point x="590" y="150"/>
      <point x="620" y="150" type="curve"/>
      <point x="620" y="170"/>
      <point x="610" y="180"/>
      <point x="610" y="350" type="curve" smooth="yes"/>
      <point x="610" y="520"/>
      <point x="620" y="530"/>
      <point x="620" y="550" type="curve"/>
      <point x="590" y="550"/>
      <point x="500" y="620"/>
      <point x="500" y="650" type="curve"/>
      <point x="480" y="650"/>
      <point x="445" y="640"/>
      <point x="320" y="640" type="curve"/>
      <point x="195" y="640"/>
      <point x="160" y="650"/>
      <point x="140" y="650" type="curve"/>
      <point x="140" y="620"/>
      <point x="50" y="550"/>
      <point x="20" y="550" type="curve"/>
      <point x="20" y="530"/>
      <point x="30" y="520"/>
      <point x="30" y="350" type="curve"/>
      <point x="30" y="180"/>
      <point x="20" y="170"/>
      <point x="20" y="150" type="curve"/>
      <point x="50" y="150"/>
      <point x="140" y="81"/>
      <point x="140" y="50" type="curve"/>
      <point x="160" y="50"/>
      <point x="170" y="60"/>
      <point x="320" y="60" type="curve"/>
      <point x="470" y="60"/>
      <point x="485" y="50"/>
      <point x="505" y="50" type="curve"/>
    </contour>
    <contour>
      <point x="320" y="140" type="curve"/>
      <point x="140" y="140"/>
      <point x="110" y="170"/>
      <point x="110" y="351" type="curve"/>
      <point x="110" y="530"/>
      <point x="140" y="560"/>
      <point x="320" y="560" type="curve"/>
      <point x="500" y="560"/>
      <point x="530" y="529"/>
      <point x="530" y="350" type="curve"/>
      <point x="530" y="170"/>
      <point x="500" y="140"/>
    </contour>
    <contour>
      <point x="370" y="380" type="curve"/>
      <point x="378" y="380"/>
      <point x="382" y="384"/>
      <point x="410" y="384" type="curve" smooth="yes"/>
      <point x="438" y="384"/>
      <point x="442" y="380"/>
      <point x="450" y="380" type="curve"/>
      <point x="450" y="388"/>
      <point x="446" y="392"/>
      <point x="446" y="440" type="curve"/>
      <point x="446" y="488"/>
      <point x="450" y="492"/>
      <point x="450" y="500" type="curve"/>
      <point x="390" y="500" type="line"/>
      <point x="390" y="492"/>
      <point x="374" y="472"/>
      <point x="370" y="472" type="curve" smooth="yes"/>
      <point x="366" y="472"/>
      <point x="350" y="492"/>
      <point x="350" y="500" type="curve"/>
      <point x="270" y="500" type="line"/>
      <point x="270" y="480"/>
      <point x="210" y="440"/>
      <point x="190" y="440" type="curve"/>
      <point x="190" y="432"/>
      <point x="198" y="428"/>
      <point x="198" y="350" type="curve"/>
      <point x="198" y="272"/>
      <point x="190" y="268"/>
      <point x="190" y="260" type="curve"/>
      <point x="210" y="260"/>
      <point x="270" y="220"/>
      <point x="270" y="200" type="curve"/>
      <point x="390" y="200" type="line"/>
      <point x="390" y="220"/>
      <point x="430" y="260"/>
      <point x="450" y="260" type="curve"/>
      <point x="450" y="268"/>
      <point x="446" y="272"/>
      <point x="446" y="290" type="curve" smooth="yes"/>
      <point x="446" y="308"/>
      <point x="450" y="312"/>
      <point x="450" y="320" type="curve"/>
      <point x="442" y="320"/>
      <point x="438" y="316"/>
      <point x="410" y="316" type="curve" smooth="yes"/>
      <point x="382" y="316"/>
      <point x="378" y="320"/>
      <point x="370" y="320" type="curve"/>
      <point x="370" y="312"/>
      <point x="374" y="308"/>
      <point x="374" y="292" type="curve" smooth="yes"/>
      <point x="374" y="272"/>
      <point x="366" y="256"/>
      <point x="342" y="256" type="curve"/>
      <point x="302" y="256"/>
      <point x="282" y="284"/>
      <point x="282" y="350" type="curve" smooth="yes"/>
      <point x="282" y="416"/>
      <point x="302" y="444"/>
      <point x="342" y="444" type="curve" smooth="yes"/>
      <point x="366" y="444"/>
      <point x="374" y="428"/>
      <point x="374" y="408" type="curve" smooth="yes"/>
      <point x="374" y="392"/>
      <point x="370" y="388"/>
    </contour>
  </outline>
</glyph>
<glyph name="degree" format="1">
  <advance width="230"/>
  <unicode hex="00B0"/>
  <outline>
    <contour>
      <point x="75" y="780" type="curve"/>
      <point x="50" y="780"/>
      <point x="40" y="795"/>
      <point x="40" y="825" type="curve"/>
      <point x="40" y="855"/>
      <point x="50" y="870"/>
      <point x="75" y="870" type="curve"/>
      <point x="100" y="870"/>
      <point x="110" y="855"/>
      <point x="110" y="825" type="curve"/>
      <point x="110" y="795"/>
      <point x="100" y="780"/>
    </contour>
    <contour>
      <point x="40" y="750" type="curve"/>
      <point x="110" y="750" type="line"/>
      <point x="110" y="760"/>
      <point x="140" y="780"/>
      <point x="150" y="780" type="curve"/>
      <point x="150" y="790"/>
      <point x="145" y="800"/>
      <point x="145" y="825" type="curve"/>
      <point x="145" y="850"/>
      <point x="150" y="860"/>
      <point x="150" y="870" type="curve"/>
      <point x="140" y="870"/>
      <point x="110" y="890"/>
      <point x="110" y="900" type="curve"/>
      <point x="40" y="900" type="line"/>
      <point x="40" y="890"/>
      <point x="10" y="870"/>
      <point x="0" y="870" type="curve"/>
      <point x="0" y="860"/>
      <point x="5" y="850"/>
      <point x="5" y="825" type="curve"/>
      <point x="5" y="800"/>
      <point x="0" y="790"/>
      <point x="0" y="780" type="curve"/>
      <point x="10" y="780"/>
      <point x="40" y="760"/>
    </contour>
  </outline>
</glyph>
<glyph name="acute" format="1">
  <advance width="300"/>
  <unicode hex="00B4"/>
  <outline>
    <contour>
      <point x="70" y="800" type="line"/>
      <point x="104" y="835"/>
      <point x="213" y="907"/>
      <point x="220" y="900" type="curve"/>
      <point x="120" y="1000" type="line"/>
      <point x="126" y="994"/>
      <point x="55" y="884"/>
      <point x="20" y="850" type="curve"/>
    </contour>
  </outline>
</glyph>
<glyph name="paragraph" format="1">
  <advance width="600"/>
  <unicode hex="00B6"/>
  <outline>
    <contour>
      <point x="230" y="30"/>
      <point x="220" y="20"/>
      <point x="220" y="0" type="curve"/>
      <point x="320" y="0" type="line"/>
      <point x="320" y="20"/>
      <point x="315" y="30"/>
      <point x="315" y="325" type="curve"/>
      <point x="315" y="630"/>
      <point x="320" y="660"/>
      <point x="345" y="660" type="curve"/>
      <point x="369" y="660"/>
      <point x="375" y="630"/>
      <point x="375" y="325" type="curve"/>
      <point x="375" y="30"/>
      <point x="370" y="20"/>
      <point x="370" y="0" type="curve"/>
      <point x="470" y="0" type="line"/>
      <point x="470" y="20"/>
      <point x="460" y="30"/>
      <point x="460" y="300" type="curve"/>
      <point x="460" y="450"/>
      <point x="470" y="610"/>
      <point x="490" y="610" type="curve"/>
      <point x="500" y="610"/>
      <point x="510" y="600"/>
      <point x="520" y="600" type="curve"/>
      <point x="520" y="620"/>
      <point x="510" y="630"/>
      <point x="510" y="675" type="curve" smooth="yes"/>
      <point x="510" y="720"/>
      <point x="520" y="730"/>
      <point x="520" y="750" type="curve"/>
      <point x="170" y="750" type="line"/>
      <point x="170" y="700"/>
      <point x="70" y="620"/>
      <point x="20" y="620" type="curve"/>
      <point x="20" y="600"/>
      <point x="30" y="590"/>
      <point x="30" y="525" type="curve"/>
      <point x="30" y="460"/>
      <point x="20" y="450"/>
      <point x="20" y="430" type="curve"/>
      <point x="70" y="430"/>
      <point x="170" y="350"/>
      <point x="170" y="300" type="curve"/>
      <point x="180" y="300"/>
      <point x="190" y="305"/>
      <point x="200" y="305" type="curve"/>
      <point x="210" y="305"/>
      <point x="220" y="300"/>
      <point x="230" y="300" type="curve"/>
    </contour>
  </outline>
</glyph>
<glyph name="periodcentered" format="1">
  <advance width="250"/>
  <unicode hex="00B7"/>
  <outline>
    <contour>
      <point x="20" y="300" type="curve"/>
      <point x="20" y="320"/>
      <point x="30" y="330"/>
      <point x="30" y="375" type="curve"/>
      <point x="30" y="420"/>
      <point x="20" y="430"/>
      <point x="20" y="450" type="curve"/>
      <point x="40" y="450"/>
      <point x="50" y="440"/>
      <point x="95" y="440" type="curve"/>
      <point x="140" y="440"/>
      <point x="150" y="450"/>
      <point x="170" y="450" type="curve"/>
      <point x="170" y="430"/>
      <point x="160" y="420"/>
      <point x="160" y="376" type="curve"/>
      <point x="160" y="330"/>
      <point x="170" y="320"/>
      <point x="170" y="300" type="curve"/>
      <point x="150" y="300"/>
      <point x="140" y="310"/>
      <point x="95" y="310" type="curve"/>
      <point x="50" y="310"/>
      <point x="40" y="300"/>
    </contour>
  </outline>
</glyph>
<glyph name="onehalf" format="1">
  <advance width="750"/>
  <unicode hex="00BD"/>
  <outline>
    <contour>
      <point x="670" y="90" type="curve"/>
      <point x="650" y="90"/>
      <point x="650" y="70"/>
      <point x="575" y="70" type="curve"/>
      <point x="575" y="90"/>
      <point x="650" y="160"/>
      <point x="670" y="160" type="curve"/>
      <point x="670" y="170"/>
      <point x="666" y="180"/>
      <point x="666" y="200" type="curve"/>
      <point x="666" y="220"/>
      <point x="670" y="230"/>
      <point x="670" y="240" type="curve"/>
      <point x="650" y="240"/>
      <point x="610" y="280"/>
      <point x="610" y="300" type="curve"/>
      <point x="490" y="300" type="line"/>
      <point x="490" y="280"/>
      <point x="450" y="260"/>
      <point x="430" y="260" type="curve"/>
      <point x="430" y="250"/>
      <point x="435" y="240"/>
      <point x="435" y="225" type="curve"/>
      <point x="435" y="210"/>
      <point x="430" y="200"/>
      <point x="430" y="190" type="curve"/>
      <point x="438" y="190"/>
      <point x="442" y="195"/>
      <point x="470" y="195" type="curve"/>
      <point x="498" y="195"/>
      <point x="502" y="190"/>
      <point x="510" y="190" type="curve"/>
      <point x="510" y="195"/>
      <point x="505" y="200"/>
      <point x="505" y="220" type="curve"/>
      <point x="505" y="230"/>
      <point x="515" y="245"/>
      <point x="535" y="245" type="curve"/>
      <point x="559" y="245"/>
      <point x="570" y="230"/>
      <point x="570" y="210" type="curve"/>
      <point x="570" y="160"/>
      <point x="450" y="70"/>
      <point x="430" y="70" type="curve"/>
      <point x="430" y="60"/>
      <point x="434" y="50"/>
      <point x="434" y="35" type="curve"/>
      <point x="434" y="20"/>
      <point x="430" y="10"/>
      <point x="430" y="0" type="curve"/>
      <point x="670" y="0" type="line"/>
      <point x="670" y="10"/>
      <point x="666" y="20"/>
      <point x="666" y="45" type="curve"/>
      <point x="666" y="70"/>
      <point x="670" y="80"/>
    </contour>
    <contour>
      <point x="75" y="585" type="curve"/>
      <point x="75" y="560"/>
      <point x="70" y="515"/>
      <point x="45" y="515" type="curve"/>
      <point x="30" y="515"/>
      <point x="25" y="520"/>
      <point x="20" y="520" type="curve"/>
      <point x="20" y="510"/>
      <point x="24" y="500"/>
      <point x="24" y="485" type="curve" smooth="yes"/>
      <point x="24" y="470"/>
      <point x="20" y="460"/>
      <point x="20" y="450" type="curve"/>
      <point x="220" y="450" type="line"/>
      <point x="220" y="460"/>
      <point x="215" y="470"/>
      <point x="215" y="485" type="curve" smooth="yes"/>
      <point x="215" y="500"/>
      <point x="220" y="510"/>
      <point x="220" y="520" type="curve"/>
      <point x="215" y="520"/>
      <point x="205" y="516"/>
      <point x="195" y="516" type="curve"/>
      <point x="170" y="516"/>
      <point x="160" y="560"/>
      <point x="160" y="635" type="curve"/>
      <point x="160" y="720"/>
      <point x="170" y="730"/>
      <point x="170" y="750" type="curve"/>
      <point x="100" y="750" type="line"/>
      <point x="100" y="730"/>
      <point x="70" y="710"/>
      <point x="20" y="710" type="curve"/>
      <point x="20" y="700"/>
      <point x="24" y="690"/>
      <point x="24" y="680" type="curve" smooth="yes"/>
      <point x="24" y="670"/>
      <point x="20" y="660"/>
      <point x="20" y="650" type="curve"/>
      <point x="25" y="650"/>
      <point x="30" y="655"/>
      <point x="45" y="655" type="curve"/>
      <point x="70" y="655"/>
      <point x="75" y="610"/>
    </contour>
    <component base="fraction"/>
  </outline>
</glyph>
<glyph name="questiondown" format="1">
  <advance width="700"/>
  <unicode hex="00BF"/>
  <outline>
    <contour>
      <point x="395" y="600" type="line"/>
      <point x="395" y="580"/>
      <point x="385" y="575"/>
      <point x="385" y="525" type="curve"/>
      <point x="385" y="475"/>
      <point x="395" y="470"/>
      <point x="395" y="450" type="curve"/>
      <point x="375" y="450"/>
      <point x="370" y="460"/>
      <point x="320" y="460" type="curve"/>
      <point x="270" y="460"/>
      <point x="265" y="450"/>
      <point x="245" y="450" type="curve"/>
      <point x="245" y="470"/>
      <point x="255" y="475"/>
      <point x="255" y="524" type="curve"/>
      <point x="255" y="574"/>
      <point x="245" y="580"/>
      <point x="245" y="600" type="curve"/>
    </contour>
    <contour>
      <point x="220" y="375" type="curve"/>
      <point x="220" y="355"/>
      <point x="230" y="345"/>
      <point x="230" y="315" type="curve"/>
      <point x="230" y="245"/>
      <point x="70" y="200"/>
      <point x="20" y="200" type="curve"/>
      <point x="20" y="180"/>
      <point x="30" y="170"/>
      <point x="30" y="100" type="curve"/>
      <point x="30" y="30"/>
      <point x="20" y="20"/>
      <point x="20" y="0" type="curve"/>
      <point x="70" y="0"/>
      <point x="170" y="-100"/>
      <point x="170" y="-150" type="curve"/>
      <point x="470" y="-150" type="line"/>
      <point x="470" y="-100"/>
      <point x="570" y="-50"/>
      <point x="620" y="-50" type="curve"/>
      <point x="620" y="-30"/>
      <point x="610" y="-20"/>
      <point x="610" y="35" type="curve"/>
      <point x="610" y="90"/>
      <point x="620" y="100"/>
      <point x="620" y="120" type="curve"/>
      <point x="600" y="120"/>
      <point x="590" y="110"/>
      <point x="520" y="110" type="curve"/>
      <point x="450" y="110"/>
      <point x="440" y="120"/>
      <point x="420" y="120" type="curve"/>
      <point x="420" y="100"/>
      <point x="430" y="90"/>
      <point x="430" y="55" type="curve"/>
      <point x="430" y="20"/>
      <point x="400" y="-10"/>
      <point x="350" y="-10" type="curve"/>
      <point x="300" y="-10"/>
      <point x="270" y="20"/>
      <point x="270" y="75" type="curve"/>
      <point x="270" y="150"/>
      <point x="370" y="225"/>
      <point x="420" y="225" type="curve"/>
      <point x="420" y="245"/>
      <point x="410" y="255"/>
      <point x="410" y="300" type="curve" smooth="yes"/>
      <point x="410" y="345"/>
      <point x="420" y="355"/>
      <point x="420" y="375" type="curve"/>
      <point x="330" y="375"/>
      <point x="330" y="400"/>
      <point x="320" y="400" type="curve"/>
      <point x="310" y="400"/>
      <point x="300" y="375"/>
    </contour>
  </outline>
</glyph>
<glyph name="Eth" format="1">
  <advance width="850"/>
  <unicode hex="00D0"/>
  <outline>
    <contour>
      <point x="470" y="410" type="curve"/>
      <point x="450" y="410"/>
      <point x="440" y="404"/>
      <point x="245" y="404" type="curve"/>
      <point x="50" y="404"/>
      <point x="40" y="410"/>
      <point x="20" y="410" type="curve"/>
      <point x="20" y="400"/>
      <point x="25" y="390"/>
      <point x="25" y="375" type="curve"/>
      <point x="25" y="360"/>
      <point x="20" y="350"/>
      <point x="20" y="340" type="curve"/>
      <point x="40" y="340"/>
      <point x="50" y="345"/>
      <point x="245" y="345" type="curve"/>
      <point x="440" y="345"/>
      <point x="450" y="340"/>
      <point x="470" y="340" type="curve"/>
      <point x="470" y="350"/>
      <point x="465" y="360"/>
      <point x="465" y="375" type="curve"/>
      <point x="465" y="390"/>
      <point x="470" y="400"/>
    </contour>
    <component base="D"/>
  </outline>
</glyph>
<glyph name="multiply" format="1">
  <advance width="524"/>
  <unicode hex="00D7"/>
  <outline>
    <contour>
      <point x="126" y="163" type="curve"/>
      <point x="140" y="177"/>
      <point x="140" y="191"/>
      <point x="278" y="329" type="curve"/>
      <point x="416" y="467"/>
      <point x="430" y="467"/>
      <point x="444" y="481" type="curve"/>
      <point x="430" y="495"/>
      <point x="416" y="495"/>
      <point x="384" y="527" type="curve"/>
      <point x="352" y="559"/>
      <point x="352" y="573"/>
      <point x="338" y="587" type="curve"/>
      <point x="324" y="573"/>
      <point x="324" y="559"/>
      <point x="186" y="421" type="curve"/>
      <point x="48" y="283"/>
      <point x="34" y="283"/>
      <point x="20" y="269" type="curve"/>
      <point x="34" y="255"/>
      <point x="48" y="255"/>
      <point x="80" y="223" type="curve"/>
      <point x="112" y="191"/>
      <point x="112" y="177"/>
    </contour>
    <contour>
      <point x="20" y="481" type="curve"/>
      <point x="34" y="467"/>
      <point x="48" y="467"/>
      <point x="186" y="329" type="curve"/>
      <point x="324" y="191"/>
      <point x="324" y="177"/>
      <point x="338" y="163" type="curve"/>
      <point x="352" y="177"/>
      <point x="352" y="191"/>
      <point x="384" y="223" type="curve"/>
      <point x="416" y="255"/>
      <point x="430" y="255"/>
      <point x="444" y="269" type="curve"/>
      <point x="430" y="283"/>
      <point x="416" y="283"/>
      <point x="278" y="421" type="curve"/>
      <point x="140" y="559"/>
      <point x="140" y="573"/>
      <point x="126" y="587" type="curve"/>
      <point x="112" y="573"/>
      <point x="112" y="559"/>
      <point x="80" y="527" type="curve"/>
      <point x="48" y="495"/>
      <point x="34" y="495"/>
    </contour>
  </outline>
</glyph>
<glyph name="ogonek" format="1">
  <advance width="400"/>
  <unicode hex="02DB"/>
  <outline>
    <contour>
      <point x="150" y="50" type="line"/>
      <point x="150" y="30"/>
      <point x="40" y="-100"/>
      <point x="20" y="-100" type="curve"/>
      <point x="20" y="-110" type="line"/>
      <point x="40" y="-110"/>
      <point x="120" y="-180"/>
      <point x="120" y="-200" type="curve"/>
      <point x="220" y="-200" type="line"/>
      <point x="220" y="-180"/>
      <point x="300" y="-60"/>
      <point x="320" y="-60" type="curve"/>
      <point x="320" y="-50" type="line"/>
      <point x="310" y="-50"/>
      <point x="300" y="-53"/>
      <point x="290" y="-53" type="curve"/>
      <point x="280" y="-53"/>
      <point x="270" y="-50"/>
      <point x="260" y="-50" type="curve"/>
      <point x="260" y="-60"/>
      <point x="220" y="-110"/>
      <point x="190" y="-110" type="curve" smooth="yes"/>
      <point x="170" y="-110"/>
      <point x="160" y="-100"/>
      <point x="160" y="-75" type="curve" smooth="yes"/>
      <point x="160" y="-30"/>
      <point x="206" y="50"/>
      <point x="220" y="50" type="curve"/>
    </contour>
  </outline>
</glyph>
<glyph name="mu" format="1">
  <advance width="850"/>
  <unicode hex="03BC"/>
  <outline>
    <contour>
      <point x="670" y="600" type="curve"/>
      <point x="370" y="600" type="line"/>
      <point x="370" y="580"/>
      <point x="380" y="570"/>
      <point x="380" y="525" type="curve" smooth="yes"/>
      <point x="380" y="480"/>
      <point x="370" y="469"/>
      <point x="370" y="450" type="curve"/>
      <point x="380" y="450"/>
      <point x="390" y="460"/>
      <point x="420" y="460" type="curve" smooth="yes"/>
      <point x="470" y="460"/>
      <point x="480" y="400"/>
      <point x="480" y="300" type="curve" smooth="yes"/>
      <point x="480" y="170"/>
      <point x="460" y="120"/>
      <point x="395" y="120" type="curve"/>
      <point x="330" y="120"/>
      <point x="310" y="170"/>
      <point x="310" y="300" type="curve" smooth="yes"/>
      <point x="310" y="570"/>
      <point x="320" y="580"/>
      <point x="320" y="600" type="curve"/>
      <point x="20" y="600" type="line"/>
      <point x="20" y="580"/>
      <point x="30" y="570"/>
      <point x="30" y="525" type="curve" smooth="yes"/>
      <point x="30" y="480"/>
      <point x="20" y="470"/>
      <point x="20" y="450" type="curve"/>
      <point x="30" y="450"/>
      <point x="40" y="460"/>
      <point x="70" y="460" type="curve" smooth="yes"/>
      <point x="120" y="460"/>
      <point x="140" y="400"/>
      <point x="140" y="150" type="curve"/>
      <point x="140" y="-120"/>
      <point x="120" y="-130"/>
      <point x="120" y="-150" type="curve"/>
      <point x="140" y="-150"/>
      <point x="150" y="-140"/>
      <point x="220" y="-140" type="curve"/>
      <point x="290" y="-140"/>
      <point x="300" y="-150"/>
      <point x="320" y="-150" type="curve"/>
      <point x="320" y="-130"/>
      <point x="310" y="-120"/>
      <point x="310" y="-75" type="curve"/>
      <point x="310" y="-20"/>
      <point x="330" y="10"/>
      <point x="370" y="10" type="curve"/>
      <point x="410" y="10"/>
      <point x="420" y="0"/>
      <point x="440" y="0" type="curve"/>
      <point x="440" y="20"/>
      <point x="470" y="60"/>
      <point x="480" y="60" type="curve"/>
      <point x="490" y="60"/>
      <point x="520" y="20"/>
      <point x="520" y="0" type="curve"/>
      <point x="770" y="0" type="line"/>
      <point x="770" y="20"/>
      <point x="760" y="30"/>
      <point x="760" y="75" type="curve"/>
      <point x="760" y="120"/>
      <point x="770" y="130"/>
      <point x="770" y="150" type="curve"/>
      <point x="760" y="150"/>
      <point x="750" y="140"/>
      <point x="720" y="140" type="curve"/>
      <point x="670" y="140"/>
      <point x="660" y="200"/>
      <point x="660" y="300" type="curve"/>
      <point x="660" y="570"/>
      <point x="670" y="580"/>
    </contour>
  </outline>
</glyph>
<glyph name="emdash" format="1">
  <advance width="1100"/>
  <unicode hex="2014"/>
  <outline>
    <contour>
      <point x="1020" y="450" type="curve"/>
      <point x="1000" y="450"/>
      <point x="990" y="440"/>
      <point x="520" y="440" type="curve"/>
      <point x="50" y="440"/>
      <point x="40" y="450"/>
      <point x="20" y="450" type="curve"/>
      <point x="20" y="430"/>
      <point x="30" y="420"/>
      <point x="30" y="375" type="curve"/>
      <point x="30" y="330"/>
      <point x="20" y="320"/>
      <point x="20" y="300" type="curve"/>
      <point x="40" y="300"/>
      <point x="50" y="310"/>
      <point x="520" y="310" type="curve"/>
      <point x="990" y="310"/>
      <point x="1000" y="300"/>
      <point x="1020" y="300" type="curve"/>
      <point x="1020" y="320"/>
      <point x="1010" y="330"/>
      <point x="1010" y="375" type="curve"/>
      <point x="1010" y="420"/>
      <point x="1020" y="430"/>
    </contour>
  </outline>
</glyph>
<glyph name="quoteright" format="1">
  <advance width="250"/>
  <unicode hex="2019"/>
  <outline>
    <contour>
      <point x="30" y="680"/>
      <point x="20" y="670"/>
      <point x="20" y="650" type="curve"/>
      <point x="40" y="650"/>
      <point x="50" y="658"/>
      <point x="70" y="658" type="curve"/>
      <point x="75" y="658"/>
      <point x="80" y="655"/>
      <point x="80" y="650" type="curve" smooth="yes"/>
      <point x="80" y="630"/>
      <point x="20" y="566"/>
      <point x="20" y="550" type="curve"/>
      <point x="40" y="550"/>
      <point x="130" y="650"/>
      <point x="170" y="650" type="curve"/>
      <point x="170" y="670"/>
      <point x="160" y="680"/>
      <point x="160" y="725" type="curve"/>
      <point x="160" y="770"/>
      <point x="170" y="780"/>
      <point x="170" y="800" type="curve"/>
      <point x="150" y="800"/>
      <point x="140" y="790"/>
      <point x="95" y="790" type="curve"/>
      <point x="50" y="790"/>
      <point x="40" y="800"/>
      <point x="20" y="800" type="curve"/>
      <point x="20" y="780"/>
      <point x="30" y="770"/>
      <point x="30" y="725" type="curve"/>
    </contour>
  </outline>
</glyph>
<glyph name="fraction" format="1">
  <advance width="750"/>
  <unicode hex="2044"/>
  <outline>
    <contour>
      <point x="20" y="0" type="line"/>
      <point x="32" y="20"/>
      <point x="58" y="30"/>
      <point x="265" y="375" type="curve"/>
      <point x="472" y="720"/>
      <point x="458" y="730"/>
      <point x="470" y="750" type="curve"/>
      <point x="670" y="750" type="line"/>
      <point x="658" y="730"/>
      <point x="632" y="720"/>
      <point x="425" y="375" type="curve"/>
      <point x="219" y="31"/>
      <point x="231" y="20"/>
      <point x="219" y="0" type="curve"/>
    </contour>
  </outline>
</glyph>
<glyph name="fi" format="1">
  <advance width="800"/>
  <unicode hex="FB01"/>
  <outline>
    <contour>
      <point x="20" y="0" type="curve"/>
      <point x="720" y="0" type="line"/>
      <point x="720" y="20"/>
      <point x="710" y="30"/>
      <point x="710" y="75" type="curve" smooth="yes"/>
      <point x="710" y="120"/>
      <point x="720" y="130"/>
      <point x="720" y="150" type="curve"/>
      <point x="710" y="150"/>
      <point x="700" y="140"/>
      <point x="670" y="140" type="curve"/>
      <point x="620" y="140"/>
      <point x="600" y="170"/>
      <point x="600" y="325" type="curve"/>
      <point x="600" y="470"/>
      <point x="620" y="480"/>
      <point x="620" y="500" type="curve"/>
      <point x="600" y="500"/>
      <point x="590" y="490"/>
      <point x="495" y="490" type="curve"/>
      <point x="400" y="490"/>
      <point x="390" y="500"/>
      <point x="370" y="500" type="curve"/>
      <point x="370" y="480"/>
      <point x="380" y="470"/>
      <point x="380" y="425" type="curve" smooth="yes"/>
      <point x="380" y="380"/>
      <point x="370" y="370"/>
      <point x="370" y="350" type="curve"/>
      <point x="380" y="350"/>
      <point x="390" y="360"/>
      <point x="400" y="360" type="curve"/>
      <point x="420" y="360"/>
      <point x="440" y="350"/>
      <point x="440" y="250" type="curve"/>
      <point x="440" y="170"/>
      <point x="420" y="140"/>
      <point x="375" y="140" type="curve"/>
      <point x="320" y="140"/>
      <point x="300" y="180"/>
      <point x="300" y="425" type="curve" smooth="yes"/>
      <point x="300" y="550"/>
      <point x="300" y="680"/>
      <point x="400" y="680" type="curve"/>
      <point x="450" y="680"/>
      <point x="480" y="650"/>
      <point x="480" y="615" type="curve" smooth="yes"/>
      <point x="480" y="580"/>
      <point x="470" y="570"/>
      <point x="470" y="550" type="curve"/>
      <point x="490" y="550"/>
      <point x="501" y="560"/>
      <point x="545" y="560" type="curve"/>
      <point x="590" y="560"/>
      <point x="600" y="550"/>
      <point x="620" y="550" type="curve"/>
      <point x="620" y="570"/>
      <point x="610" y="580"/>
      <point x="610" y="625" type="curve"/>
      <point x="610" y="670"/>
      <point x="620" y="680"/>
      <point x="620" y="700" type="curve"/>
      <point x="570" y="700"/>
      <point x="520" y="750"/>
      <point x="520" y="800" type="curve"/>
      <point x="220" y="800" type="line"/>
      <point x="220" y="750"/>
      <point x="170" y="650"/>
      <point x="120" y="650" type="curve"/>
      <point x="120" y="630"/>
      <point x="130" y="620"/>
      <point x="130" y="575" type="curve" smooth="yes"/>
      <point x="130" y="510"/>
      <point x="110" y="490"/>
      <point x="69" y="490" type="curve" smooth="yes"/>
      <point x="40" y="490"/>
      <point x="30" y="500"/>
      <point x="20" y="500" type="curve"/>
      <point x="20" y="480"/>
      <point x="30" y="470"/>
      <point x="30" y="425" type="curve" smooth="yes"/>
      <point x="30" y="380"/>
      <point x="20" y="370"/>
      <point x="20" y="350" type="curve"/>
      <point x="30" y="350"/>
      <point x="40" y="360"/>
      <point x="70" y="360" type="curve" smooth="yes"/>
      <point x="110" y="360"/>
      <point x="140" y="320"/>
      <point x="140" y="250" type="curve" smooth="yes"/>
      <point x="140" y="180"/>
      <point x="104" y="140"/>
      <point x="70" y="140" type="curve" smooth="yes"/>
      <point x="40" y="140"/>
      <point x="30" y="150"/>
      <point x="20" y="150" type="curve"/>
      <point x="20" y="130"/>
      <point x="30" y="120"/>
      <point x="30" y="75" type="curve" smooth="yes"/>
      <point x="30" y="30"/>
      <point x="20" y="20"/>
    </contour>
  </outline>
</glyph>
<glyph name="Fy" format="1">
  <advance width="1350"/>
  <outline>
    <contour>
      <point x="470" y="0" type="line"/>
      <point x="470" y="20"/>
      <point x="460" y="30"/>
      <point x="460" y="75" type="curve"/>
      <point x="460" y="120"/>
      <point x="470" y="130"/>
      <point x="470" y="150" type="curve"/>
      <point x="460" y="150"/>
      <point x="450" y="140"/>
      <point x="420" y="140" type="curve" smooth="yes"/>
      <point x="370" y="140"/>
      <point x="350" y="200"/>
      <point x="350" y="290" type="curve" smooth="yes"/>
      <point x="350" y="330"/>
      <point x="370" y="360"/>
      <point x="390" y="360" type="curve"/>
      <point x="410" y="360"/>
      <point x="430" y="350"/>
      <point x="430" y="315" type="curve"/>
      <point x="430" y="295"/>
      <point x="420" y="285"/>
      <point x="420" y="275" type="curve"/>
      <point x="430" y="275"/>
      <point x="440" y="285"/>
      <point x="470" y="285" type="curve"/>
      <point x="500" y="285"/>
      <point x="510" y="275"/>
      <point x="520" y="275" type="curve"/>
      <point x="520" y="295"/>
      <point x="510" y="305"/>
      <point x="510" y="400" type="curve"/>
      <point x="510" y="495"/>
      <point x="520" y="505"/>
      <point x="520" y="525" type="curve"/>
      <point x="510" y="525"/>
      <point x="500" y="515"/>
      <point x="470" y="515" type="curve"/>
      <point x="440" y="515"/>
      <point x="430" y="525"/>
      <point x="420" y="525" type="curve"/>
      <point x="420" y="515"/>
      <point x="430" y="505"/>
      <point x="430" y="485" type="curve"/>
      <point x="430" y="450"/>
      <point x="410" y="440"/>
      <point x="390" y="440" type="curve"/>
      <point x="370" y="440"/>
      <point x="350" y="460"/>
      <point x="350" y="500" type="curve" smooth="yes"/>
      <point x="350" y="560"/>
      <point x="390" y="610"/>
      <point x="470" y="610" type="curve"/>
      <point x="550" y="610"/>
      <point x="580" y="570"/>
      <point x="580" y="520" type="curve" smooth="yes"/>
      <point x="580" y="480"/>
      <point x="570" y="470"/>
      <point x="570" y="450" type="curve"/>
      <point x="580" y="450"/>
      <point x="590" y="460"/>
      <point x="620" y="460" type="curve"/>
      <point x="690" y="460"/>
      <point x="750" y="450"/>
      <point x="770" y="450" type="curve"/>
      <point x="770" y="470"/>
      <point x="760" y="480"/>
      <point x="760" y="600" type="curve" smooth="yes"/>
      <point x="760" y="720"/>
      <point x="770" y="730"/>
      <point x="770" y="750" type="curve"/>
      <point x="20" y="750" type="line"/>
      <point x="20" y="730"/>
      <point x="30" y="720"/>
      <point x="30" y="675" type="curve" smooth="yes"/>
      <point x="30" y="630"/>
      <point x="20" y="620"/>
      <point x="20" y="600" type="curve"/>
      <point x="30" y="600"/>
      <point x="40" y="610"/>
      <point x="70" y="610" type="curve"/>
      <point x="120" y="610"/>
      <point x="140" y="480"/>
      <point x="140" y="375" type="curve"/>
      <point x="140" y="270"/>
      <point x="120" y="140"/>
      <point x="70" y="140" type="curve"/>
      <point x="40" y="140"/>
      <point x="30" y="150"/>
      <point x="20" y="150" type="curve"/>
      <point x="20" y="130"/>
      <point x="30" y="120"/>
      <point x="30" y="75" type="curve" smooth="yes"/>
      <point x="30" y="30"/>
      <point x="20" y="20"/>
      <point x="20" y="0" type="curve"/>
    </contour>
    <component base="y" xOffset="550"/>
  </outline>
</glyph>
<glyph name="tt" format="1">
  <advance width="900"/>
  <outline>
    <contour>
      <point x="810" y="75" type="curve" smooth="yes"/>
      <point x="810" y="120"/>
      <point x="820" y="130"/>
      <point x="820" y="150" type="curve"/>
      <point x="810" y="150"/>
      <point x="800" y="140"/>
      <point x="770" y="140" type="curve"/>
      <point x="720" y="140"/>
      <point x="710" y="200"/>
      <point x="710" y="300" type="curve"/>
      <point x="710" y="400"/>
      <point x="720" y="460"/>
      <point x="770" y="460" type="curve"/>
      <point x="800" y="460"/>
      <point x="810" y="450"/>
      <point x="820" y="450" type="curve"/>
      <point x="820" y="470"/>
      <point x="810" y="480"/>
      <point x="810" y="525" type="curve" smooth="yes"/>
      <point x="810" y="570"/>
      <point x="820" y="580"/>
      <point x="820" y="600" type="curve"/>
      <point x="810" y="600"/>
      <point x="800" y="590"/>
      <point x="770" y="590" type="curve" smooth="yes"/>
      <point x="716" y="590"/>
      <point x="710" y="600"/>
      <point x="710" y="700" type="curve"/>
      <point x="710" y="750"/>
      <point x="720" y="780"/>
      <point x="720" y="800" type="curve"/>
      <point x="620" y="800" type="line"/>
      <point x="620" y="750"/>
      <point x="570" y="700"/>
      <point x="520" y="700" type="curve"/>
      <point x="520" y="690"/>
      <point x="530" y="680"/>
      <point x="530" y="650" type="curve" smooth="yes"/>
      <point x="530" y="600"/>
      <point x="470" y="590"/>
      <point x="420" y="590" type="curve" smooth="yes"/>
      <point x="370" y="590"/>
      <point x="310" y="600"/>
      <point x="310" y="700" type="curve"/>
      <point x="310" y="750"/>
      <point x="320" y="780"/>
      <point x="320" y="800" type="curve"/>
      <point x="220" y="800" type="line"/>
      <point x="220" y="750"/>
      <point x="170" y="700"/>
      <point x="120" y="700" type="curve"/>
      <point x="120" y="690"/>
      <point x="130" y="680"/>
      <point x="130" y="650" type="curve" smooth="yes"/>
      <point x="130" y="600"/>
      <point x="120" y="590"/>
      <point x="70" y="590" type="curve"/>
      <point x="40" y="590"/>
      <point x="30" y="600"/>
      <point x="20" y="600" type="curve"/>
      <point x="20" y="580"/>
      <point x="30" y="570"/>
      <point x="30" y="525" type="curve" smooth="yes"/>
      <point x="30" y="480"/>
      <point x="20" y="470"/>
      <point x="20" y="450" type="curve"/>
      <point x="30" y="450"/>
      <point x="40" y="460"/>
      <point x="70" y="460" type="curve" smooth="yes"/>
      <point x="120" y="460"/>
      <point x="130" y="400"/>
      <point x="130" y="300" type="curve"/>
      <point x="130" y="200"/>
      <point x="120" y="170"/>
      <point x="120" y="150" type="curve"/>
      <point x="170" y="150"/>
      <point x="220" y="50"/>
      <point x="220" y="0" type="curve"/>
      <point x="420" y="0" type="line"/>
      <point x="420" y="20"/>
      <point x="410" y="30"/>
      <point x="410" y="75" type="curve" smooth="yes"/>
      <point x="410" y="120"/>
      <point x="420" y="130"/>
      <point x="420" y="150" type="curve"/>
      <point x="410" y="150"/>
      <point x="400" y="140"/>
      <point x="370" y="140" type="curve"/>
      <point x="320" y="140"/>
      <point x="310" y="200"/>
      <point x="310" y="300" type="curve"/>
      <point x="310" y="410"/>
      <point x="340" y="460"/>
      <point x="420" y="460" type="curve" smooth="yes"/>
      <point x="500" y="460"/>
      <point x="530" y="410"/>
      <point x="530" y="300" type="curve"/>
      <point x="530" y="200"/>
      <point x="520" y="170"/>
      <point x="520" y="150" type="curve"/>
      <point x="570" y="150"/>
      <point x="620" y="50"/>
      <point x="620" y="0" type="curve"/>
      <point x="820" y="0" type="line"/>
      <point x="820" y="20"/>
      <point x="810" y="30"/>
    </contour>
  </outline>
</glyph>
